<?xml version="1.0" encoding="UTF-8" standalone="no"?>
<!-- Created with Inkscape (http://www.inkscape.org/) -->

<svg
   xmlns:dc="http://purl.org/dc/elements/1.1/"
   xmlns:cc="http://creativecommons.org/ns#"
   xmlns:rdf="http://www.w3.org/1999/02/22-rdf-syntax-ns#"
   xmlns:svg="http://www.w3.org/2000/svg"
   xmlns="http://www.w3.org/2000/svg"
   xmlns:sodipodi="http://sodipodi.sourceforge.net/DTD/sodipodi-0.dtd"
   xmlns:inkscape="http://www.inkscape.org/namespaces/inkscape"
   width="549.21259"
   height="301.18109"
   id="svg3206"
   version="1.1"
   inkscape:version="0.48.3.1 r9886"
   sodipodi:docname="Pressure air.svg">
  <defs
     id="defs3208" />
  <sodipodi:namedview
     inkscape:document-units="mm"
     pagecolor="#ffffff"
     bordercolor="#666666"
     borderopacity="1.0"
     inkscape:pageopacity="0.0"
     inkscape:pageshadow="2"
     inkscape:zoom="2.3448821"
     inkscape:cx="275.55641"
     inkscape:cy="152.77824"
     inkscape:current-layer="layer1"
     id="namedview3210"
     showgrid="false"
     inkscape:window-width="1551"
     inkscape:window-height="876"
     inkscape:window-x="49"
     inkscape:window-y="24"
     inkscape:window-maximized="1"
     units="mm"
     fit-margin-top="0"
     fit-margin-left="0"
     fit-margin-right="0"
     fit-margin-bottom="0" />
  <metadata
     id="metadata3212">
    <rdf:RDF>
      <cc:Work
         rdf:about="">
        <dc:format>image/svg+xml</dc:format>
        <dc:type
           rdf:resource="http://purl.org/dc/dcmitype/StillImage" />
        <dc:title />
      </cc:Work>
    </rdf:RDF>
  </metadata>
  <g
     inkscape:label="Layer 1"
     inkscape:groupmode="layer"
     id="layer1"
     transform="translate(-286.71835,-128.01757)">
    <rect
       style="fill:#ffffff;fill-opacity:1;stroke:#ffffff;stroke-width:2;stroke-linecap:square;stroke-linejoin:miter;stroke-miterlimit:4;stroke-opacity:1;stroke-dasharray:none;stroke-dashoffset:0"
       id="rect3069"
       width="563.33508"
       height="308.88983"
       x="-6.1111298"
       y="-6.0420694"
       transform="translate(286.71835,128.01757)" />
    <g
       stroke-miterlimit="2"
       font-size="14.6667"
       font-weight="400"
       font-style="normal"
       id="g34"
       style="font-size:14.66670036px;font-style:normal;font-weight:400;fill:none;stroke:#ff0000;stroke-width:3.18396974;stroke-linecap:square;stroke-linejoin:miter;stroke-miterlimit:2;stroke-opacity:1;stroke-dasharray:none;font-family:Ubuntu"
       transform="matrix(0.51151733,0,0,0.80731406,47.09692,-147.26376)">
      <path
         style="fill:none;stroke:#ff0000;stroke-width:3.18396974;stroke-miterlimit:2;stroke-opacity:1;stroke-dasharray:none"
         d="m 562,369.022 c 129.09872,105.23776 285.06413,172.87165 445.85,212.84 168.857,42.30304 342.8462,60.01748 516.15,71.787"
         id="polyline36"
         inkscape:connector-curvature="0" />
    </g>
    <polyline
       style="font-size:27.07419968px;font-style:normal;font-weight:400;fill:none;stroke:#000000;stroke-width:1.59198487;stroke-linecap:square;stroke-linejoin:bevel;stroke-miterlimit:4;stroke-opacity:1;stroke-dasharray:none;font-family:Ubuntu"
       id="polyline104"
       points="81,618 76,618 "
       vector-effect="none"
       transform="matrix(0.51151733,0,0,0.80731406,292.62522,-147.26376)" />
    <polyline
       style="font-size:27.07419968px;font-style:normal;font-weight:400;fill:none;stroke:#000000;stroke-width:1.59198487;stroke-linecap:square;stroke-linejoin:bevel;stroke-miterlimit:4;stroke-opacity:1;stroke-dasharray:none;font-family:Ubuntu"
       id="polyline106"
       points="81,557 76,557 "
       vector-effect="none"
       transform="matrix(0.51151733,0,0,0.80731406,292.62522,-147.26376)" />
    <polyline
       style="font-size:27.07419968px;font-style:normal;font-weight:400;fill:none;stroke:#000000;stroke-width:1.59198487;stroke-linecap:square;stroke-linejoin:bevel;stroke-miterlimit:4;stroke-opacity:1;stroke-dasharray:none;font-family:Ubuntu"
       id="polyline108"
       points="81,495 76,495 "
       vector-effect="none"
       transform="matrix(0.51151733,0,0,0.80731406,292.62522,-147.26376)" />
    <polyline
       style="font-size:27.07419968px;font-style:normal;font-weight:400;fill:none;stroke:#000000;stroke-width:1.59198487;stroke-linecap:square;stroke-linejoin:bevel;stroke-miterlimit:4;stroke-opacity:1;stroke-dasharray:none;font-family:Ubuntu"
       id="polyline110"
       points="81,434 76,434 "
       vector-effect="none"
       transform="matrix(0.51151733,0,0,0.80731406,292.62522,-147.26376)" />
    <polyline
       style="font-size:27.07419968px;font-style:normal;font-weight:400;fill:none;stroke:#000000;stroke-width:1.59198487;stroke-linecap:square;stroke-linejoin:bevel;stroke-miterlimit:4;stroke-opacity:1;stroke-dasharray:none;font-family:Ubuntu"
       id="polyline120"
       points="81,679 72,679 "
       vector-effect="none"
       transform="matrix(0.51151733,0,0,0.80731406,292.62522,-147.26376)" />
    <polyline
       style="font-size:27.07419968px;font-style:normal;font-weight:400;fill:none;stroke:#000000;stroke-width:1.59198487;stroke-linecap:square;stroke-linejoin:bevel;stroke-miterlimit:4;stroke-opacity:1;stroke-dasharray:none;font-family:Ubuntu"
       id="polyline122"
       points="81,373 72,373 "
       vector-effect="none"
       transform="matrix(0.51151733,0,0,0.80731406,292.62522,-147.26376)" />
    <g
       transform="matrix(0.51151733,0,0,0.42108826,292.62522,114.98356)"
       font-size="27.0742"
       font-weight="400"
       font-style="normal"
       id="g128"
       style="font-size:27.07419968px;font-style:normal;font-weight:400;fill:none;stroke:#000000;stroke-width:1.61678398;stroke-linecap:square;stroke-linejoin:bevel;stroke-miterlimit:4;stroke-opacity:1;stroke-dasharray:none;font-family:Ubuntu">
      <polyline
         vector-effect="none"
         points="81,67 81,679 "
         id="polyline130"
         style="fill:none;stroke-width:1.61678398;stroke-miterlimit:4;stroke-dasharray:none" />
    </g>
    <polyline
       style="font-size:27.07419968px;font-style:normal;font-weight:400;fill:none;stroke:#000000;stroke-width:1.59198487;stroke-linecap:square;stroke-linejoin:bevel;stroke-miterlimit:4;stroke-opacity:1;stroke-dasharray:none;font-family:Ubuntu"
       id="polyline228"
       points="610,679 610,684 "
       vector-effect="none"
       transform="matrix(0.51151733,0,0,0.80731406,47.09692,-147.26376)" />
    <polyline
       style="font-size:27.07419968px;font-style:normal;font-weight:400;fill:none;stroke:#000000;stroke-width:1.59198487;stroke-linecap:square;stroke-linejoin:bevel;stroke-miterlimit:4;stroke-opacity:1;stroke-dasharray:none;font-family:Ubuntu"
       id="polyline230"
       points="658,679 658,684 "
       vector-effect="none"
       transform="matrix(0.51151733,0,0,0.80731406,47.09692,-147.26376)" />
    <polyline
       style="font-size:27.07419968px;font-style:normal;font-weight:400;fill:none;stroke:#000000;stroke-width:1.59198487;stroke-linecap:square;stroke-linejoin:bevel;stroke-miterlimit:4;stroke-opacity:1;stroke-dasharray:none;font-family:Ubuntu"
       id="polyline232"
       points="706,679 706,684 "
       vector-effect="none"
       transform="matrix(0.51151733,0,0,0.80731406,47.09692,-147.26376)" />
    <polyline
       style="font-size:27.07419968px;font-style:normal;font-weight:400;fill:none;stroke:#000000;stroke-width:1.59198487;stroke-linecap:square;stroke-linejoin:bevel;stroke-miterlimit:4;stroke-opacity:1;stroke-dasharray:none;font-family:Ubuntu"
       id="polyline234"
       points="754,679 754,684 "
       vector-effect="none"
       transform="matrix(0.51151733,0,0,0.80731406,47.09692,-147.26376)" />
    <polyline
       style="font-size:27.07419968px;font-style:normal;font-weight:400;fill:none;stroke:#000000;stroke-width:1.59198487;stroke-linecap:square;stroke-linejoin:bevel;stroke-miterlimit:4;stroke-opacity:1;stroke-dasharray:none;font-family:Ubuntu"
       id="polyline236"
       points="851,679 851,684 "
       vector-effect="none"
       transform="matrix(0.51151733,0,0,0.80731406,47.09692,-147.26376)" />
    <polyline
       style="font-size:27.07419968px;font-style:normal;font-weight:400;fill:none;stroke:#000000;stroke-width:1.59198487;stroke-linecap:square;stroke-linejoin:bevel;stroke-miterlimit:4;stroke-opacity:1;stroke-dasharray:none;font-family:Ubuntu"
       id="polyline238"
       points="899,679 899,684 "
       vector-effect="none"
       transform="matrix(0.51151733,0,0,0.80731406,47.09692,-147.26376)" />
    <polyline
       style="font-size:27.07419968px;font-style:normal;font-weight:400;fill:none;stroke:#000000;stroke-width:1.59198487;stroke-linecap:square;stroke-linejoin:bevel;stroke-miterlimit:4;stroke-opacity:1;stroke-dasharray:none;font-family:Ubuntu"
       id="polyline240"
       points="947,679 947,684 "
       vector-effect="none"
       transform="matrix(0.51151733,0,0,0.80731406,47.09692,-147.26376)" />
    <polyline
       style="font-size:27.07419968px;font-style:normal;font-weight:400;fill:none;stroke:#000000;stroke-width:1.59198487;stroke-linecap:square;stroke-linejoin:bevel;stroke-miterlimit:4;stroke-opacity:1;stroke-dasharray:none;font-family:Ubuntu"
       id="polyline242"
       points="995,679 995,684 "
       vector-effect="none"
       transform="matrix(0.51151733,0,0,0.80731406,47.09692,-147.26376)" />
    <polyline
       style="font-size:27.07419968px;font-style:normal;font-weight:400;fill:none;stroke:#000000;stroke-width:1.59198487;stroke-linecap:square;stroke-linejoin:bevel;stroke-miterlimit:4;stroke-opacity:1;stroke-dasharray:none;font-family:Ubuntu"
       id="polyline244"
       points="1091,679 1091,684 "
       vector-effect="none"
       transform="matrix(0.51151733,0,0,0.80731406,47.09692,-147.26376)" />
    <polyline
       style="font-size:27.07419968px;font-style:normal;font-weight:400;fill:none;stroke:#000000;stroke-width:1.59198487;stroke-linecap:square;stroke-linejoin:bevel;stroke-miterlimit:4;stroke-opacity:1;stroke-dasharray:none;font-family:Ubuntu"
       id="polyline246"
       points="1139,679 1139,684 "
       vector-effect="none"
       transform="matrix(0.51151733,0,0,0.80731406,47.09692,-147.26376)" />
    <polyline
       style="font-size:27.07419968px;font-style:normal;font-weight:400;fill:none;stroke:#000000;stroke-width:1.59198487;stroke-linecap:square;stroke-linejoin:bevel;stroke-miterlimit:4;stroke-opacity:1;stroke-dasharray:none;font-family:Ubuntu"
       id="polyline248"
       points="1187,679 1187,684 "
       vector-effect="none"
       transform="matrix(0.51151733,0,0,0.80731406,47.09692,-147.26376)" />
    <polyline
       style="font-size:27.07419968px;font-style:normal;font-weight:400;fill:none;stroke:#000000;stroke-width:1.59198487;stroke-linecap:square;stroke-linejoin:bevel;stroke-miterlimit:4;stroke-opacity:1;stroke-dasharray:none;font-family:Ubuntu"
       id="polyline250"
       points="1235,679 1235,684 "
       vector-effect="none"
       transform="matrix(0.51151733,0,0,0.80731406,47.09692,-147.26376)" />
    <polyline
       style="font-size:27.07419968px;font-style:normal;font-weight:400;fill:none;stroke:#000000;stroke-width:1.59198487;stroke-linecap:square;stroke-linejoin:bevel;stroke-miterlimit:4;stroke-opacity:1;stroke-dasharray:none;font-family:Ubuntu"
       id="polyline252"
       points="1332,679 1332,684 "
       vector-effect="none"
       transform="matrix(0.51151733,0,0,0.80731406,47.09692,-147.26376)" />
    <polyline
       style="font-size:27.07419968px;font-style:normal;font-weight:400;fill:none;stroke:#000000;stroke-width:1.59198487;stroke-linecap:square;stroke-linejoin:bevel;stroke-miterlimit:4;stroke-opacity:1;stroke-dasharray:none;font-family:Ubuntu"
       id="polyline254"
       points="1380,679 1380,684 "
       vector-effect="none"
       transform="matrix(0.51151733,0,0,0.80731406,47.09692,-147.26376)" />
    <polyline
       style="font-size:27.07419968px;font-style:normal;font-weight:400;fill:none;stroke:#000000;stroke-width:1.59198487;stroke-linecap:square;stroke-linejoin:bevel;stroke-miterlimit:4;stroke-opacity:1;stroke-dasharray:none;font-family:Ubuntu"
       id="polyline256"
       points="1428,679 1428,684 "
       vector-effect="none"
       transform="matrix(0.51151733,0,0,0.80731406,47.09692,-147.26376)" />
    <polyline
       style="font-size:27.07419968px;font-style:normal;font-weight:400;fill:none;stroke:#000000;stroke-width:1.59198487;stroke-linecap:square;stroke-linejoin:bevel;stroke-miterlimit:4;stroke-opacity:1;stroke-dasharray:none;font-family:Ubuntu"
       id="polyline258"
       points="1476,679 1476,684 "
       vector-effect="none"
       transform="matrix(0.51151733,0,0,0.80731406,47.09692,-147.26376)" />
    <polyline
       style="font-size:27.07419968px;font-style:normal;font-weight:400;fill:none;stroke:#000000;stroke-width:1.59198487;stroke-linecap:square;stroke-linejoin:bevel;stroke-miterlimit:4;stroke-opacity:1;stroke-dasharray:none;font-family:Ubuntu"
       id="polyline264"
       points="562,679 562,688 "
       vector-effect="none"
       transform="matrix(0.51151733,0,0,0.80731406,46.71072,-147.18758)" />
    <polyline
       style="font-size:27.07419968px;font-style:normal;font-weight:400;fill:none;stroke:#000000;stroke-width:1.59198487;stroke-linecap:square;stroke-linejoin:bevel;stroke-miterlimit:4;stroke-opacity:1;stroke-dasharray:none;font-family:Ubuntu"
       id="polyline266"
       points="803,679 803,688 "
       vector-effect="none"
       transform="matrix(0.51151733,0,0,0.80731406,47.09692,-147.26376)" />
    <polyline
       style="font-size:27.07419968px;font-style:normal;font-weight:400;fill:none;stroke:#000000;stroke-width:1.59198487;stroke-linecap:square;stroke-linejoin:bevel;stroke-miterlimit:4;stroke-opacity:1;stroke-dasharray:none;font-family:Ubuntu"
       id="polyline268"
       points="1043,679 1043,688 "
       vector-effect="none"
       transform="matrix(0.51151733,0,0,0.80731406,47.09692,-147.26376)" />
    <polyline
       style="font-size:27.07419968px;font-style:normal;font-weight:400;fill:none;stroke:#000000;stroke-width:1.59198487;stroke-linecap:square;stroke-linejoin:bevel;stroke-miterlimit:4;stroke-opacity:1;stroke-dasharray:none;font-family:Ubuntu"
       id="polyline270"
       points="1284,679 1284,688 "
       vector-effect="none"
       transform="matrix(0.51151733,0,0,0.80731406,47.09692,-147.26376)" />
    <polyline
       style="font-size:27.07419968px;font-style:normal;font-weight:400;fill:none;stroke:#000000;stroke-width:1.59198487;stroke-linecap:square;stroke-linejoin:bevel;stroke-miterlimit:4;stroke-opacity:1;stroke-dasharray:none;font-family:Ubuntu"
       id="polyline272"
       points="1524,679 1524,688 "
       vector-effect="none"
       transform="matrix(0.51151733,0,0,0.80731406,47.09692,-147.26376)" />
    <polyline
       style="font-size:27.07419968px;font-style:normal;font-weight:400;fill:none;stroke:#000000;stroke-width:1.59198487;stroke-linecap:square;stroke-linejoin:bevel;stroke-miterlimit:4;stroke-opacity:1;stroke-dasharray:none;font-family:Ubuntu"
       id="polyline278"
       points="81,679 1524,679 "
       vector-effect="none"
       transform="matrix(0.34135486,0,0,0.80731406,306.4245,-147.26376)" />
    <g
       transform="matrix(0,-1,1,0,3.8889008,-85.555817)"
       style="font-size:24.55283165px;font-style:normal;font-variant:normal;font-weight:normal;font-stretch:normal;text-align:start;line-height:125%;letter-spacing:0px;word-spacing:0px;writing-mode:lr-tb;text-anchor:start;fill:#000000;fill-opacity:1;stroke:none;font-family:Liberation Sans;-inkscape-font-specification:Liberation Sans"
       id="text4083">
      <path
         d="m -340.74456,348.27623 c -2e-5,0.98308 -0.0799,1.89022 -0.23978,2.72143 -0.15986,0.83122 -0.42761,1.54654 -0.80324,2.14598 -0.36766,0.59943 -0.8592,1.07099 -1.47461,1.41466 -0.60744,0.33568 -1.35873,0.50353 -2.25387,0.50353 -0.92713,0 -1.73837,-0.17584 -2.43371,-0.52751 -0.69534,-0.35166 -1.22684,-0.92712 -1.59449,-1.72637 l -0.0599,0 c 0.008,0.016 0.012,0.0879 0.012,0.2158 0.008,0.12788 0.012,0.28773 0.012,0.47955 0.008,0.19182 0.012,0.40761 0.012,0.64739 0.008,0.23178 0.012,0.46356 0.012,0.69534 l 0,5.07121 -2.15796,0 0,-15.41745 c -1e-5,-0.31169 -0.004,-0.61141 -0.012,-0.89915 0,-0.28772 -0.004,-0.54747 -0.012,-0.77926 -0.008,-0.23977 -0.016,-0.44357 -0.024,-0.61143 -0.008,-0.16783 -0.016,-0.28771 -0.024,-0.35966 l 2.08604,0 c 0.008,0.024 0.016,0.10791 0.024,0.25176 0.016,0.14388 0.028,0.31972 0.036,0.52751 0.016,0.19982 0.028,0.41562 0.036,0.64739 0.016,0.23179 0.024,0.45158 0.024,0.65937 l 0.048,0 c 0.19981,-0.41559 0.42759,-0.76726 0.68335,-1.055 0.25576,-0.29571 0.54748,-0.53548 0.87518,-0.71932 0.32768,-0.19181 0.69134,-0.32768 1.09097,-0.40762 0.40761,-0.0879 0.86318,-0.13186 1.36671,-0.13187 0.89514,1e-5 1.64643,0.15986 2.25387,0.47954 0.61541,0.31972 1.10695,0.77129 1.47461,1.35473 0.37563,0.57546 0.64338,1.2748 0.80324,2.09802 0.15984,0.81524 0.23976,1.72238 0.23978,2.72143 m -2.26587,0.048 c -10e-6,-0.79924 -0.048,-1.51056 -0.14386,-2.13398 -0.0959,-0.62341 -0.26376,-1.15091 -0.50353,-1.58251 -0.23179,-0.43158 -0.54349,-0.75927 -0.93511,-0.98307 -0.39164,-0.22378 -0.88318,-0.33567 -1.47461,-0.33569 -0.47956,2e-5 -0.93113,0.0679 -1.35472,0.20381 -0.42361,0.13589 -0.79526,0.39564 -1.11495,0.77927 -0.31171,0.38365 -0.55948,0.91514 -0.7433,1.59449 -0.18383,0.67138 -0.27574,1.54655 -0.27574,2.62553 0,0.91913 0.0759,1.6984 0.22779,2.33779 0.15185,0.63141 0.37164,1.14292 0.65937,1.53455 0.29572,0.39163 0.65938,0.67537 1.09097,0.8512 0.43159,0.16784 0.92712,0.25176 1.4866,0.25176 0.59943,0 1.09496,-0.11589 1.4866,-0.34767 0.39961,-0.23178 0.71531,-0.56746 0.9471,-1.00705 0.23977,-0.43958 0.40761,-0.97508 0.50353,-1.60649 0.0959,-0.63939 0.14385,-1.3667 0.14386,-2.18194"
         id="path3490"
         inkscape:connector-curvature="0" />
      <path
         d="m -332.89197,355.06183 4.92735,-18.03099 1.89421,0 -4.8794,18.03099 -1.94216,0"
         id="path3492"
         inkscape:connector-curvature="0" />
      <path
         d="m -315.47241,344.0682 c 0.23977,-0.43957 0.49952,-0.81122 0.77927,-1.11495 0.27973,-0.31169 0.58744,-0.56745 0.92312,-0.76727 0.33568,-0.1998 0.70333,-0.34367 1.10296,-0.4316 0.39962,-0.0959 0.8472,-0.14385 1.34274,-0.14386 0.8312,10e-6 1.51056,0.11191 2.03807,0.33568 0.53549,0.2238 0.95509,0.53951 1.25882,0.94711 0.31169,0.39963 0.52349,0.87918 0.6354,1.43864 0.11987,0.55948 0.17981,1.1749 0.17983,1.84626 l 0,8.64384 -2.16996,0 0,-8.22424 c -10e-6,-0.55147 -0.036,-1.03501 -0.10789,-1.45063 -0.0639,-0.4156 -0.19183,-0.75927 -0.38364,-1.03103 -0.19183,-0.27972 -0.46357,-0.48752 -0.81523,-0.62341 -0.35168,-0.14385 -0.80725,-0.21578 -1.36671,-0.21579 -0.51153,10e-6 -0.97509,0.0919 -1.39069,0.27574 -0.40762,0.18383 -0.75929,0.44359 -1.05501,0.77926 -0.28773,0.33569 -0.51152,0.74331 -0.67136,1.22285 -0.15986,0.47955 -0.23978,1.01904 -0.23978,1.61847 l 0,7.64878 -2.15796,0 0,-17.79121 2.15796,0 0,4.62763 c 0,0.26377 -0.004,0.52752 -0.012,0.79126 -0.008,0.26376 -0.02,0.50753 -0.036,0.73131 -0.008,0.2238 -0.016,0.41562 -0.024,0.57545 -0.008,0.15187 -0.016,0.25577 -0.024,0.31171 l 0.036,0"
         id="path3494"
         inkscape:connector-curvature="0" />
      <path
         d="m -290.52395,343.01319 c -2e-5,0.73532 -0.1239,1.42267 -0.37165,2.06206 -0.23979,0.63141 -0.60345,1.18289 -1.09097,1.65444 -0.47956,0.46357 -1.08299,0.83122 -1.81029,1.10296 -0.72733,0.27175 -1.57453,0.40762 -2.54161,0.40761 l -4.96331,0 0,6.58179 -2.28984,0 0,-16.89206 7.10929,0 c 0.99905,2e-5 1.87022,0.1239 2.61353,0.37165 0.74329,0.23979 1.36271,0.58347 1.85825,1.03103 0.49552,0.4396 0.86717,0.97509 1.11495,1.60648 0.24775,0.62343 0.37163,1.31477 0.37165,2.07404 m -2.30183,0.024 c -10e-6,-1.07097 -0.3277,-1.88221 -0.98307,-2.4337 -0.65539,-0.55946 -1.63847,-0.83919 -2.94922,-0.83921 l -4.54371,0 0,6.66571 4.63962,0 c 1.31875,1e-5 2.28583,-0.29172 2.90126,-0.87517 0.6234,-0.58344 0.93511,-1.42265 0.93512,-2.51763"
         id="path3496"
         inkscape:connector-curvature="0" />
      <path
         d="m -284.24188,355.06183 c -1.30278,0 -2.28185,-0.34368 -2.93723,-1.03103 -0.65538,-0.68735 -0.98308,-1.63046 -0.98307,-2.82933 -1e-5,-0.85519 0.15984,-1.55453 0.47954,-2.09802 0.32769,-0.55148 0.75129,-0.98307 1.2708,-1.29478 0.5275,-0.3117 1.12694,-0.52749 1.79831,-0.64739 0.67136,-0.11988 1.35471,-0.18781 2.05006,-0.20381 l 2.91325,-0.048 0,-0.70733 c -1e-5,-0.53549 -0.0559,-0.99106 -0.16784,-1.36671 -0.1119,-0.37564 -0.28374,-0.67935 -0.51551,-0.91114 -0.23179,-0.23177 -0.52352,-0.39962 -0.87518,-0.50353 -0.34368,-0.11188 -0.75129,-0.16783 -1.22284,-0.16784 -0.41562,10e-6 -0.79126,0.032 -1.12694,0.0959 -0.33569,0.056 -0.62741,0.16385 -0.87517,0.32369 -0.24777,0.15187 -0.44758,0.36367 -0.59944,0.6354 -0.15186,0.26376 -0.25176,0.59945 -0.29971,1.00705 l -2.25388,-0.2038 c 0.0799,-0.51151 0.23178,-0.97907 0.45557,-1.40268 0.22379,-0.43158 0.53949,-0.80323 0.94711,-1.11495 0.4156,-0.31169 0.93112,-0.55147 1.54654,-0.71932 0.62341,-0.17582 1.3747,-0.26374 2.25387,-0.26375 1.63046,1e-5 2.8573,0.37566 3.68053,1.12694 0.82321,0.74331 1.23482,1.82229 1.23483,3.23694 l 0,5.58673 c -1e-5,0.6394 0.0839,1.12294 0.25177,1.45063 0.16783,0.3197 0.48752,0.47955 0.95909,0.47955 0.11988,0 0.23976,-0.008 0.35966,-0.024 0.11988,-0.016 0.23577,-0.036 0.34767,-0.0599 l 0,1.34273 c -0.27175,0.0639 -0.5435,0.11189 -0.81523,0.14386 -0.26376,0.032 -0.54749,0.048 -0.85119,0.048 -0.40763,0 -0.7593,-0.0519 -1.05501,-0.15585 -0.28774,-0.1119 -0.52351,-0.27574 -0.70733,-0.49154 -0.18384,-0.22379 -0.3237,-0.49553 -0.4196,-0.81523 -0.0959,-0.32769 -0.15587,-0.70733 -0.17983,-1.13893 l -0.0719,0 c -0.23179,0.41561 -0.48755,0.79126 -0.76727,1.12694 -0.27175,0.33568 -0.59145,0.62341 -0.9591,0.86319 -0.36766,0.23178 -0.78726,0.41161 -1.25881,0.53949 -0.46357,0.12788 -0.99906,0.19182 -1.60648,0.19182 m 0.49153,-1.61848 c 0.68735,0 1.28678,-0.12388 1.79831,-0.37165 0.5195,-0.25575 0.94709,-0.57945 1.28279,-0.97108 0.34366,-0.39163 0.59942,-0.81922 0.76727,-1.28279 0.16783,-0.46356 0.25175,-0.90714 0.25176,-1.33074 l 0,-1.067 -2.36177,0.048 c -0.52751,0.008 -1.03103,0.048 -1.51057,0.11988 -0.47156,0.064 -0.88717,0.19583 -1.24683,0.39563 -0.35966,0.19982 -0.64739,0.47955 -0.86318,0.83921 -0.20781,0.35966 -0.31171,0.83122 -0.31171,1.41466 0,0.70334 0.18782,1.24683 0.56347,1.63047 0.38363,0.38364 0.92712,0.57545 1.63046,0.57545"
         id="path3498"
         inkscape:connector-curvature="0" />
    </g>
    <g
       style="font-size:24.55283165px;font-style:normal;font-variant:normal;font-weight:normal;font-stretch:normal;text-align:start;line-height:125%;letter-spacing:0px;word-spacing:0px;writing-mode:lr-tb;text-anchor:start;fill:#000000;fill-opacity:1;stroke:none;font-family:Liberation Sans;-inkscape-font-specification:Liberation Sans"
       id="text4087"
       transform="translate(-53.333496,10.555588)">
      <path
         d="m 758.70404,372.88091 c 0.23977,-0.43957 0.49952,-0.81122 0.77926,-1.11494 0.27974,-0.3117 0.58744,-0.56746 0.92313,-0.76728 0.33568,-0.1998 0.70333,-0.34366 1.10296,-0.43159 0.39962,-0.0959 0.8472,-0.14385 1.34274,-0.14387 0.8312,2e-5 1.51056,0.11191 2.03807,0.33569 0.53549,0.2238 0.95509,0.5395 1.25881,0.9471 0.3117,0.39964 0.5235,0.87918 0.6354,1.43864 0.11988,0.55949 0.17982,1.1749 0.17983,1.84626 l 0,8.64385 -2.16995,0 0,-8.22424 c -1e-5,-0.55147 -0.036,-1.03502 -0.1079,-1.45064 -0.0639,-0.41559 -0.19182,-0.75927 -0.38363,-1.03102 -0.19183,-0.27973 -0.46358,-0.48753 -0.81523,-0.62341 -0.35168,-0.14386 -0.80725,-0.21579 -1.36671,-0.2158 -0.51153,1e-5 -0.97509,0.0919 -1.39069,0.27574 -0.40762,0.18384 -0.75929,0.44359 -1.05501,0.77926 -0.28773,0.3357 -0.51152,0.74331 -0.67136,1.22285 -0.15986,0.47956 -0.23978,1.01905 -0.23978,1.61847 l 0,7.64879 -2.15796,0 0,-17.79122 2.15796,0 0,4.62764 c 0,0.26376 -0.004,0.52751 -0.012,0.79125 -0.008,0.26376 -0.02,0.50753 -0.036,0.73131 -0.008,0.2238 -0.016,0.41562 -0.024,0.57546 -0.008,0.15186 -0.016,0.25577 -0.024,0.3117 l 0.036,0"
         id="path3466"
         inkscape:connector-curvature="0" />
      <path
         d="m 775.3803,383.87454 4.92735,-18.03099 1.89422,0 -4.8794,18.03099 -1.94217,0"
         id="path3468"
         inkscape:connector-curvature="0" />
      <path
         d="m 798.78222,383.63477 -4.38786,-5.92242 -1.5825,1.30677 0,4.61565 -2.15797,0 0,-17.79122 2.15797,0 0,11.11352 5.69462,-6.29406 2.52962,0 -5.26304,5.57474 5.53878,7.39702 -2.52962,0"
         id="path3470"
         inkscape:connector-curvature="0" />
      <path
         d="m 810.48318,383.63477 0,-8.22424 c -10e-6,-0.6314 -0.04,-1.1589 -0.11989,-1.58251 -0.0799,-0.42359 -0.2158,-0.76327 -0.40761,-1.01904 -0.18384,-0.26374 -0.42761,-0.44757 -0.73131,-0.55148 -0.30372,-0.11188 -0.67537,-0.16783 -1.11495,-0.16784 -0.45558,1e-5 -0.86719,0.0919 -1.23484,0.27574 -0.36765,0.17584 -0.68336,0.4356 -0.9471,0.77926 -0.25576,0.3357 -0.45558,0.7553 -0.59944,1.25882 -0.13587,0.49554 -0.20381,1.067 -0.2038,1.71438 l 0,7.51691 -2.14598,0 0,-10.20238 c 0,-0.27173 -0.004,-0.55546 -0.012,-0.85119 0,-0.30371 -0.004,-0.58744 -0.012,-0.8512 -0.008,-0.27173 -0.016,-0.50351 -0.024,-0.69534 -0.008,-0.19181 -0.016,-0.31569 -0.024,-0.37165 l 2.03808,0 c 0.008,0.04 0.016,0.14787 0.024,0.32369 0.008,0.17585 0.016,0.37965 0.024,0.61142 0.016,0.2238 0.028,0.45559 0.036,0.69535 0.008,0.23179 0.012,0.4276 0.012,0.58744 l 0.036,0 c 0.19182,-0.37563 0.39962,-0.71531 0.62341,-1.01904 0.22379,-0.3037 0.48354,-0.55946 0.77927,-0.76727 0.30371,-0.21578 0.64738,-0.37963 1.03102,-0.49154 0.39163,-0.11987 0.8432,-0.17981 1.35473,-0.17983 0.98306,2e-5 1.75833,0.19583 2.3258,0.58745 0.57545,0.39164 0.97507,1.01505 1.19887,1.87023 l 0.036,0 c 0.1918,-0.37563 0.4076,-0.71531 0.64739,-1.01904 0.23976,-0.3037 0.51949,-0.55946 0.8392,-0.76727 0.31969,-0.21578 0.67935,-0.37963 1.07899,-0.49154 0.3996,-0.11987 0.85517,-0.17981 1.36671,-0.17983 0.65536,2e-5 1.21883,0.0879 1.6904,0.26375 0.47953,0.17585 0.87116,0.44759 1.17489,0.81523 0.3037,0.36767 0.52749,0.84322 0.67137,1.42666 0.14384,0.57546 0.21578,1.26282 0.2158,2.06205 l 0,8.64385 -2.13399,0 0,-8.22424 c -2e-5,-0.6314 -0.04,-1.1589 -0.11989,-1.58251 -0.0799,-0.42359 -0.21581,-0.76327 -0.40761,-1.01904 -0.18385,-0.26374 -0.42762,-0.44757 -0.73131,-0.55148 -0.30373,-0.11188 -0.67538,-0.16783 -1.11495,-0.16784 -0.45559,1e-5 -0.8672,0.0879 -1.23484,0.26375 -0.36766,0.16785 -0.68336,0.41962 -0.9471,0.75529 -0.25577,0.33569 -0.45558,0.7553 -0.59944,1.25881 -0.13588,0.50353 -0.20382,1.08698 -0.2038,1.75035 l 0,7.51691 -2.13399,0"
         id="path3472"
         inkscape:connector-curvature="0" />
    </g>
    <g
       style="font-size:24.55283165px;font-style:normal;font-variant:normal;font-weight:normal;font-stretch:normal;text-align:start;line-height:125%;letter-spacing:0px;word-spacing:0px;writing-mode:lr-tb;text-anchor:start;fill:#000000;fill-opacity:1;stroke:none;font-family:Liberation Sans;-inkscape-font-specification:Liberation Sans"
       id="text4103"
       transform="translate(2.6993722,-99.87121)">
      <path
         d="m 288.94058,259.15891 0,-1.22285 2.86929,0 0,-8.66383 -2.5416,1.81429 0,-1.35872 2.66149,-1.83027 1.32675,0 0,10.03853 2.74141,0 0,1.22285 -7.05734,0"
         style="font-size:16.36855507px"
         id="path3553"
         inkscape:connector-curvature="0" />
      <path
         d="m 305.26917,253.52422 c -10e-6,1.08165 -0.10391,1.99279 -0.3117,2.73342 -0.20249,0.73531 -0.48222,1.33208 -0.83921,1.79031 -0.35168,0.45291 -0.76728,0.77794 -1.24683,0.97508 -0.47955,0.19715 -0.99107,0.29572 -1.53455,0.29572 -0.54882,0 -1.06033,-0.0986 -1.53455,-0.29572 -0.47422,-0.19714 -0.88716,-0.52217 -1.23883,-0.97508 -0.34634,-0.4529 -0.62075,-1.04701 -0.82322,-1.78231 -0.19715,-0.74064 -0.29573,-1.65444 -0.29572,-2.74142 -1e-5,-1.13492 0.0986,-2.0727 0.29572,-2.81334 0.20247,-0.74596 0.47954,-1.34006 0.83121,-1.78232 0.35167,-0.44224 0.76728,-0.75128 1.24683,-0.92713 0.47954,-0.18115 1.00171,-0.27173 1.56652,-0.27174 0.53815,1e-5 1.04168,0.0906 1.51057,0.27174 0.47421,0.17585 0.88716,0.48489 1.23883,0.92713 0.35166,0.44226 0.62874,1.03636 0.83122,1.78232 0.20247,0.74064 0.3037,1.67842 0.30371,2.81334 m -1.46262,0 c 0,-0.89515 -0.0533,-1.63844 -0.15985,-2.22989 -0.10657,-0.59677 -0.26375,-1.07098 -0.47155,-1.42266 -0.20781,-0.35699 -0.46357,-0.60742 -0.76728,-0.75129 -0.29839,-0.14919 -0.6394,-0.22378 -1.02303,-0.22379 -0.40496,1e-5 -0.76195,0.0746 -1.07099,0.22379 -0.30905,0.1492 -0.57013,0.40229 -0.78326,0.75928 -0.20781,0.35168 -0.36499,0.8259 -0.47156,1.42266 -0.10657,0.59145 -0.15985,1.33208 -0.15985,2.2219 0,0.86319 0.0533,1.59051 0.15985,2.18194 0.11189,0.59145 0.27174,1.06833 0.47955,1.43065 0.21313,0.357 0.47155,0.61542 0.77527,0.77527 0.30371,0.15452 0.65005,0.23178 1.03902,0.23178 0.3783,0 0.71931,-0.0773 1.02303,-0.23178 0.30371,-0.15985 0.55947,-0.41827 0.76728,-0.77527 0.21312,-0.36232 0.37564,-0.8392 0.48754,-1.43065 0.11721,-0.59143 0.17583,-1.31875 0.17583,-2.18194"
         style="font-size:16.36855507px"
         id="path3555"
         inkscape:connector-curvature="0" />
      <path
         d="m 314.38057,253.52422 c 0,1.08165 -0.10391,1.99279 -0.3117,2.73342 -0.20248,0.73531 -0.48222,1.33208 -0.83921,1.79031 -0.35167,0.45291 -0.76728,0.77794 -1.24682,0.97508 -0.47956,0.19715 -0.99107,0.29572 -1.53455,0.29572 -0.54882,0 -1.06034,-0.0986 -1.53456,-0.29572 -0.47422,-0.19714 -0.88716,-0.52217 -1.23883,-0.97508 -0.34634,-0.4529 -0.62075,-1.04701 -0.82322,-1.78231 -0.19715,-0.74064 -0.29572,-1.65444 -0.29572,-2.74142 0,-1.13492 0.0986,-2.0727 0.29572,-2.81334 0.20247,-0.74596 0.47954,-1.34006 0.83121,-1.78232 0.35167,-0.44224 0.76728,-0.75128 1.24683,-0.92713 0.47954,-0.18115 1.00172,-0.27173 1.56652,-0.27174 0.53815,1e-5 1.04168,0.0906 1.51057,0.27174 0.47422,0.17585 0.88716,0.48489 1.23884,0.92713 0.35166,0.44226 0.62873,1.03636 0.83121,1.78232 0.20247,0.74064 0.30371,1.67842 0.30371,2.81334 m -1.46262,0 c 0,-0.89515 -0.0533,-1.63844 -0.15984,-2.22989 -0.10658,-0.59677 -0.26376,-1.07098 -0.47156,-1.42266 -0.20781,-0.35699 -0.46357,-0.60742 -0.76728,-0.75129 -0.29839,-0.14919 -0.6394,-0.22378 -1.02303,-0.22379 -0.40496,1e-5 -0.76195,0.0746 -1.07099,0.22379 -0.30904,0.1492 -0.57013,0.40229 -0.78326,0.75928 -0.20781,0.35168 -0.36499,0.8259 -0.47156,1.42266 -0.10656,0.59145 -0.15985,1.33208 -0.15984,2.2219 -10e-6,0.86319 0.0533,1.59051 0.15984,2.18194 0.1119,0.59145 0.27175,1.06833 0.47955,1.43065 0.21313,0.357 0.47155,0.61542 0.77527,0.77527 0.30371,0.15452 0.65005,0.23178 1.03902,0.23178 0.3783,0 0.71932,-0.0773 1.02303,-0.23178 0.30371,-0.15985 0.55947,-0.41827 0.76728,-0.77527 0.21313,-0.36232 0.37564,-0.8392 0.48754,-1.43065 0.11722,-0.59143 0.17583,-1.31875 0.17583,-2.18194"
         style="font-size:16.36855507px"
         id="path3557"
         inkscape:connector-curvature="0" />
      <path
         d="m 323.49198,253.52422 c -1e-5,1.08165 -0.10391,1.99279 -0.31171,2.73342 -0.20248,0.73531 -0.48222,1.33208 -0.83921,1.79031 -0.35167,0.45291 -0.76728,0.77794 -1.24682,0.97508 -0.47955,0.19715 -0.99107,0.29572 -1.53455,0.29572 -0.54882,0 -1.06034,-0.0986 -1.53455,-0.29572 -0.47423,-0.19714 -0.88717,-0.52217 -1.23884,-0.97508 -0.34634,-0.4529 -0.62074,-1.04701 -0.82322,-1.78231 -0.19715,-0.74064 -0.29572,-1.65444 -0.29572,-2.74142 0,-1.13492 0.0986,-2.0727 0.29572,-2.81334 0.20248,-0.74596 0.47955,-1.34006 0.83122,-1.78232 0.35166,-0.44224 0.76727,-0.75128 1.24682,-0.92713 0.47954,-0.18115 1.00172,-0.27173 1.56652,-0.27174 0.53816,1e-5 1.04168,0.0906 1.51058,0.27174 0.47421,0.17585 0.88715,0.48489 1.23883,0.92713 0.35166,0.44226 0.62873,1.03636 0.83121,1.78232 0.20247,0.74064 0.30371,1.67842 0.30372,2.81334 m -1.46262,0 c -10e-6,-0.89515 -0.0533,-1.63844 -0.15985,-2.22989 -0.10657,-0.59677 -0.26376,-1.07098 -0.47156,-1.42266 -0.20781,-0.35699 -0.46357,-0.60742 -0.76727,-0.75129 -0.29839,-0.14919 -0.6394,-0.22378 -1.02304,-0.22379 -0.40495,1e-5 -0.76195,0.0746 -1.07099,0.22379 -0.30904,0.1492 -0.57013,0.40229 -0.78326,0.75928 -0.2078,0.35168 -0.36499,0.8259 -0.47155,1.42266 -0.10657,0.59145 -0.15985,1.33208 -0.15985,2.2219 0,0.86319 0.0533,1.59051 0.15985,2.18194 0.11189,0.59145 0.27174,1.06833 0.47954,1.43065 0.21313,0.357 0.47156,0.61542 0.77527,0.77527 0.30371,0.15452 0.65005,0.23178 1.03902,0.23178 0.37831,0 0.71932,-0.0773 1.02304,-0.23178 0.3037,-0.15985 0.55946,-0.41827 0.76727,-0.77527 0.21313,-0.36232 0.37564,-0.8392 0.48754,-1.43065 0.11722,-0.59143 0.17583,-1.31875 0.17584,-2.18194"
         style="font-size:16.36855507px"
         id="path3559"
         inkscape:connector-curvature="0" />
    </g>
    <g
       style="font-size:24.55283165px;font-style:normal;font-variant:normal;font-weight:normal;font-stretch:normal;text-align:start;line-height:125%;letter-spacing:0px;word-spacing:0px;writing-mode:lr-tb;text-anchor:start;fill:#000000;fill-opacity:1;stroke:none;font-family:Liberation Sans;-inkscape-font-specification:Liberation Sans"
       id="text4103-1"
       transform="translate(2.6993622,-80.611405)">
      <path
         d="m 305.19726,286.18648 c -1e-5,0.47955 -0.0773,0.9218 -0.23178,1.32675 -0.1492,0.39962 -0.38099,0.74596 -0.69535,1.03902 -0.30905,0.29305 -0.70601,0.52217 -1.19087,0.68735 -0.48489,0.16518 -1.05768,0.24776 -1.71838,0.24776 -0.66072,0 -1.23351,-0.0826 -1.71838,-0.24776 -0.47955,-0.16518 -0.87917,-0.39163 -1.19887,-0.67936 -0.31437,-0.29306 -0.54882,-0.6394 -0.70334,-1.03902 -0.14919,-0.40495 -0.22379,-0.84453 -0.22379,-1.31876 0,-0.41027 0.0613,-0.77526 0.18383,-1.09496 0.12788,-0.3197 0.29572,-0.5941 0.50353,-0.82323 0.21313,-0.23444 0.4529,-0.42093 0.71932,-0.55947 0.27174,-0.14386 0.55147,-0.23977 0.83921,-0.28773 l 0,-0.032 c -0.31438,-0.0746 -0.59678,-0.19447 -0.84721,-0.35966 -0.2451,-0.16517 -0.4529,-0.36232 -0.62341,-0.59144 -0.16518,-0.23444 -0.29305,-0.49286 -0.38363,-0.77527 -0.0853,-0.28239 -0.12789,-0.58078 -0.12788,-0.89515 -10e-6,-0.39429 0.0746,-0.76461 0.22378,-1.11096 0.15452,-0.35165 0.38098,-0.65803 0.67936,-0.91913 0.29839,-0.2664 0.6687,-0.47421 1.11096,-0.62341 0.44224,-0.15451 0.95376,-0.23177 1.53455,-0.23178 0.61275,10e-6 1.14291,0.0773 1.5905,0.23178 0.4529,0.15453 0.82588,0.365 1.11894,0.6314 0.29838,0.2611 0.5195,0.56748 0.66337,0.91914 0.14386,0.35167 0.21579,0.72466 0.2158,1.11894 -1e-5,0.30905 -0.0453,0.60477 -0.13587,0.88716 -0.0853,0.28241 -0.21314,0.54083 -0.38364,0.77527 -0.16518,0.22913 -0.37299,0.42627 -0.62341,0.59144 -0.24511,0.15986 -0.53017,0.27175 -0.85519,0.33569 l 0,0.032 c 0.32502,0.0533 0.62607,0.15186 0.90314,0.29572 0.27707,0.13854 0.51684,0.32503 0.71933,0.55947 0.20246,0.22912 0.36231,0.50353 0.47954,0.82322 0.11722,0.31971 0.17583,0.68203 0.17584,1.08698 m -1.77433,-5.30699 c -1e-5,-0.2824 -0.0373,-0.54082 -0.11189,-0.77527 -0.0693,-0.23444 -0.1865,-0.43425 -0.35167,-0.59944 -0.16518,-0.17049 -0.38098,-0.30104 -0.64739,-0.39163 -0.26642,-0.0959 -0.59411,-0.14385 -0.98307,-0.14386 -0.37832,10e-6 -0.69801,0.048 -0.9591,0.14386 -0.26109,0.0906 -0.47688,0.22114 -0.64739,0.39163 -0.16518,0.16519 -0.28506,0.365 -0.35966,0.59944 -0.0746,0.23445 -0.11189,0.49287 -0.11189,0.77527 0,0.22379 0.0293,0.45291 0.0879,0.68735 0.0586,0.23445 0.16517,0.44758 0.31969,0.63939 0.15452,0.19183 0.36765,0.34901 0.6394,0.47156 0.27174,0.12256 0.62074,0.18383 1.04701,0.18383 0.4529,0 0.81523,-0.0613 1.08698,-0.18383 0.27706,-0.12255 0.48753,-0.27973 0.6314,-0.47156 0.14919,-0.19181 0.2451,-0.40494 0.28773,-0.63939 0.048,-0.23444 0.0719,-0.46356 0.0719,-0.68735 m 0.27974,5.17112 c -1e-5,-0.27174 -0.0373,-0.53283 -0.1119,-0.78326 -0.0746,-0.25576 -0.20248,-0.47955 -0.38363,-0.67137 -0.18117,-0.19714 -0.42628,-0.35433 -0.73531,-0.47156 -0.30372,-0.12254 -0.68469,-0.18382 -1.14292,-0.18382 -0.42094,0 -0.7806,0.0613 -1.07898,0.18382 -0.29306,0.11723 -0.53284,0.27442 -0.71933,0.47156 -0.18116,0.19715 -0.31437,0.42627 -0.39962,0.68735 -0.0853,0.25576 -0.12788,0.52218 -0.12788,0.79925 0,0.34634 0.0426,0.66337 0.12788,0.9511 0.0852,0.2824 0.22112,0.5275 0.40762,0.73531 0.18648,0.20247 0.43159,0.35966 0.7353,0.47155 0.30371,0.1119 0.67137,0.16784 1.10296,0.16784 0.43692,0 0.80457,-0.0559 1.10296,-0.16784 0.29838,-0.11189 0.53815,-0.26908 0.71932,-0.47155 0.18116,-0.20781 0.30904,-0.45557 0.38364,-0.7433 0.0799,-0.29306 0.11988,-0.61808 0.11989,-0.97508"
         style="font-size:16.36855507px"
         id="path3546"
         inkscape:connector-curvature="0" />
      <path
         d="m 314.38059,283.69283 c -10e-6,1.08165 -0.10391,1.99279 -0.3117,2.73342 -0.20249,0.73531 -0.48222,1.33208 -0.83921,1.79031 -0.35168,0.45291 -0.76728,0.77794 -1.24683,0.97508 -0.47955,0.19715 -0.99107,0.29572 -1.53455,0.29572 -0.54882,0 -1.06033,-0.0986 -1.53455,-0.29572 -0.47422,-0.19714 -0.88716,-0.52217 -1.23883,-0.97508 -0.34634,-0.4529 -0.62075,-1.04701 -0.82322,-1.78232 -0.19715,-0.74063 -0.29573,-1.65443 -0.29573,-2.74141 0,-1.13492 0.0986,-2.0727 0.29573,-2.81334 0.20247,-0.74596 0.47954,-1.34006 0.83121,-1.78232 0.35167,-0.44224 0.76728,-0.75128 1.24683,-0.92713 0.47954,-0.18115 1.00171,-0.27173 1.56652,-0.27174 0.53815,10e-6 1.04168,0.0906 1.51057,0.27174 0.47421,0.17585 0.88716,0.48489 1.23883,0.92713 0.35166,0.44226 0.62873,1.03636 0.83122,1.78232 0.20247,0.74064 0.3037,1.67842 0.30371,2.81334 m -1.46262,0 c -1e-5,-0.89515 -0.0533,-1.63845 -0.15985,-2.22989 -0.10657,-0.59677 -0.26375,-1.07099 -0.47155,-1.42266 -0.20781,-0.35699 -0.46357,-0.60742 -0.76728,-0.75129 -0.29839,-0.14919 -0.6394,-0.22378 -1.02303,-0.22379 -0.40496,10e-6 -0.76195,0.0746 -1.07099,0.22379 -0.30905,0.1492 -0.57013,0.40229 -0.78326,0.75928 -0.20781,0.35168 -0.36499,0.8259 -0.47156,1.42266 -0.10657,0.59145 -0.15985,1.33208 -0.15985,2.2219 0,0.86319 0.0533,1.5905 0.15985,2.18194 0.11189,0.59145 0.27174,1.06833 0.47955,1.43065 0.21313,0.357 0.47155,0.61542 0.77527,0.77527 0.30371,0.15452 0.65005,0.23178 1.03902,0.23178 0.3783,0 0.71931,-0.0773 1.02303,-0.23178 0.30371,-0.15985 0.55947,-0.41827 0.76728,-0.77527 0.21312,-0.36232 0.37564,-0.8392 0.48754,-1.43065 0.11721,-0.59144 0.17582,-1.31875 0.17583,-2.18194"
         style="font-size:16.36855507px"
         id="path3548"
         inkscape:connector-curvature="0" />
      <path
         d="m 323.49199,283.69283 c 0,1.08165 -0.10391,1.99279 -0.3117,2.73342 -0.20249,0.73531 -0.48222,1.33208 -0.83921,1.79031 -0.35167,0.45291 -0.76728,0.77794 -1.24682,0.97508 -0.47956,0.19715 -0.99107,0.29572 -1.53456,0.29572 -0.54881,0 -1.06033,-0.0986 -1.53455,-0.29572 -0.47422,-0.19714 -0.88716,-0.52217 -1.23883,-0.97508 -0.34634,-0.4529 -0.62075,-1.04701 -0.82322,-1.78232 -0.19715,-0.74063 -0.29572,-1.65443 -0.29572,-2.74141 0,-1.13492 0.0986,-2.0727 0.29572,-2.81334 0.20247,-0.74596 0.47954,-1.34006 0.83121,-1.78232 0.35167,-0.44224 0.76728,-0.75128 1.24683,-0.92713 0.47954,-0.18115 1.00172,-0.27173 1.56652,-0.27174 0.53815,10e-6 1.04168,0.0906 1.51057,0.27174 0.47422,0.17585 0.88716,0.48489 1.23884,0.92713 0.35166,0.44226 0.62873,1.03636 0.83121,1.78232 0.20247,0.74064 0.30371,1.67842 0.30371,2.81334 m -1.46262,0 c 0,-0.89515 -0.0533,-1.63845 -0.15984,-2.22989 -0.10658,-0.59677 -0.26376,-1.07099 -0.47156,-1.42266 -0.20781,-0.35699 -0.46357,-0.60742 -0.76728,-0.75129 -0.29839,-0.14919 -0.6394,-0.22378 -1.02303,-0.22379 -0.40496,10e-6 -0.76195,0.0746 -1.07099,0.22379 -0.30904,0.1492 -0.57013,0.40229 -0.78326,0.75928 -0.20781,0.35168 -0.36499,0.8259 -0.47156,1.42266 -0.10656,0.59145 -0.15985,1.33208 -0.15985,2.2219 0,0.86319 0.0533,1.5905 0.15985,2.18194 0.1119,0.59145 0.27175,1.06833 0.47955,1.43065 0.21313,0.357 0.47155,0.61542 0.77527,0.77527 0.30371,0.15452 0.65005,0.23178 1.03902,0.23178 0.3783,0 0.71932,-0.0773 1.02303,-0.23178 0.30371,-0.15985 0.55947,-0.41827 0.76728,-0.77527 0.21313,-0.36232 0.37564,-0.8392 0.48754,-1.43065 0.11722,-0.59144 0.17583,-1.31875 0.17583,-2.18194"
         style="font-size:16.36855507px"
         id="path3550"
         inkscape:connector-curvature="0" />
    </g>
    <g
       style="font-size:24.55283165px;font-style:normal;font-variant:normal;font-weight:normal;font-stretch:normal;text-align:start;line-height:125%;letter-spacing:0px;word-spacing:0px;writing-mode:lr-tb;text-anchor:start;fill:#000000;fill-opacity:1;stroke:none;font-family:Liberation Sans;-inkscape-font-specification:Liberation Sans"
       id="text4167"
       transform="translate(0.50480257,-96.93674)">
      <path
         d="m 352.84649,259.89548 0,-1.83427 4.30394,0 0,-12.99574 -3.8124,2.72143 0,-2.03807 3.99223,-2.74541 1.99012,0 0,15.05779 4.11212,0 0,1.83427 -10.58601,0"
         style="fill:#ff0000"
         id="path3475"
         inkscape:connector-curvature="0" />
      <path
         d="m 377.33938,251.44345 c -1e-5,1.62248 -0.15586,2.98919 -0.46756,4.10013 -0.30372,1.10297 -0.72333,1.99812 -1.25881,2.68547 -0.52751,0.67936 -1.15092,1.1669 -1.87024,1.46262 -0.71932,0.29572 -1.4866,0.44358 -2.30182,0.44358 -0.82323,0 -1.59051,-0.14786 -2.30183,-0.44358 -0.71133,-0.29572 -1.33075,-0.78326 -1.85825,-1.46262 -0.51951,-0.67936 -0.93112,-1.57052 -1.23483,-2.67348 -0.29572,-1.11094 -0.44358,-2.48165 -0.44358,-4.11212 0,-1.70238 0.14786,-3.10905 0.44358,-4.22002 0.30371,-1.11893 0.71932,-2.01008 1.24682,-2.67347 0.5275,-0.66336 1.15091,-1.12692 1.87024,-1.39069 0.71931,-0.27173 1.50257,-0.4076 2.34978,-0.40762 0.80723,2e-5 1.56252,0.13589 2.26586,0.40762 0.71132,0.26377 1.33073,0.72733 1.85825,1.39069 0.52749,0.66339 0.9431,1.55454 1.24682,2.67347 0.3037,1.11097 0.45556,2.51764 0.45557,4.22002 m -2.19393,0 c -10e-6,-1.34272 -0.0799,-2.45767 -0.23977,-3.34484 -0.15986,-0.89514 -0.39564,-1.60647 -0.70734,-2.13399 -0.31171,-0.53548 -0.69535,-0.91112 -1.15091,-1.12693 -0.44758,-0.22378 -0.9591,-0.33567 -1.53455,-0.33569 -0.60743,2e-5 -1.14293,0.11191 -1.60649,0.33569 -0.46356,0.2238 -0.85519,0.60344 -1.17489,1.13892 -0.31171,0.52752 -0.54748,1.23885 -0.70733,2.13399 -0.15985,0.88717 -0.23978,1.99812 -0.23977,3.33285 -1e-5,1.29479 0.0799,2.38576 0.23977,3.27291 0.16784,0.88717 0.40761,1.6025 0.71932,2.14598 0.3197,0.5355 0.70733,0.92313 1.1629,1.1629 0.45557,0.23178 0.97508,0.34768 1.55853,0.34767 0.56746,1e-5 1.07898,-0.11589 1.53456,-0.34767 0.45556,-0.23977 0.8392,-0.6274 1.15091,-1.1629 0.31969,-0.54348 0.56346,-1.25881 0.73131,-2.14598 0.17582,-0.88715 0.26374,-1.97812 0.26375,-3.27291"
         style="fill:#ff0000"
         id="path3477"
         inkscape:connector-curvature="0" />
      <path
         d="m 380.1807,259.89548 0,-1.83427 4.30394,0 0,-12.99574 -3.8124,2.72143 0,-2.03807 3.99223,-2.74541 1.99012,0 0,15.05779 4.11212,0 0,1.83427 -10.58601,0"
         style="fill:#ff0000"
         id="path3479"
         inkscape:connector-curvature="0" />
      <path
         d="m 404.5537,255.23188 c -10e-6,0.77527 -0.12789,1.46662 -0.38364,2.07404 -0.24777,0.60743 -0.61543,1.12294 -1.10295,1.54654 -0.47956,0.41561 -1.079,0.73531 -1.79831,0.9591 -0.71134,0.21579 -1.52657,0.32369 -2.44569,0.32369 -1.04702,0 -1.93018,-0.12788 -2.6495,-0.38364 -0.71133,-0.26375 -1.29878,-0.60742 -1.76234,-1.03102 -0.46356,-0.4316 -0.81123,-0.91913 -1.04301,-1.46262 -0.23179,-0.55148 -0.38364,-1.11894 -0.45557,-1.7024 l 2.22989,-0.20381 c 0.0639,0.44759 0.17983,0.8552 0.34767,1.22285 0.17584,0.36766 0.41161,0.68336 0.70734,0.94711 0.29571,0.26375 0.65937,0.46756 1.09097,0.61142 0.43159,0.14387 0.9431,0.2158 1.53455,0.2158 1.08697,0 1.93816,-0.26775 2.55359,-0.80325 0.6234,-0.53549 0.93511,-1.33074 0.93512,-2.38574 -1e-5,-0.62341 -0.13988,-1.12294 -0.41961,-1.49859 -0.27175,-0.38363 -0.61542,-0.67935 -1.03102,-0.88716 -0.40763,-0.21579 -0.8552,-0.35966 -1.34274,-0.4316 -0.47955,-0.0719 -0.92313,-0.10789 -1.33074,-0.10789 l -1.22285,0 0,-1.87024 1.17489,0 c 0.40761,10e-6 0.83121,-0.04 1.27081,-0.11989 0.43957,-0.0879 0.8392,-0.23976 1.19886,-0.45557 0.36765,-0.22377 0.66737,-0.52349 0.89916,-0.89915 0.23976,-0.37563 0.35965,-0.85518 0.35966,-1.43864 -1e-5,-0.90313 -0.26776,-1.61446 -0.80325,-2.13399 -0.52751,-0.52748 -1.31476,-0.79123 -2.36177,-0.79125 -0.95111,2e-5 -1.72238,0.24379 -2.31381,0.73131 -0.58346,0.48755 -0.92314,1.1749 -1.01904,2.06205 l -2.16995,-0.16784 c 0.0879,-0.74328 0.29172,-1.39067 0.61142,-1.94216 0.31969,-0.55147 0.72331,-1.00704 1.21086,-1.36672 0.49553,-0.36763 1.05899,-0.63938 1.6904,-0.81523 0.6314,-0.18381 1.30277,-0.27572 2.0141,-0.27574 0.9431,2e-5 1.75434,0.11991 2.4337,0.35967 0.67935,0.23179 1.23483,0.55149 1.66643,0.95909 0.43158,0.39964 0.74728,0.87119 0.94711,1.41467 0.20779,0.5435 0.31169,1.12295 0.3117,1.73835 -10e-6,0.49555 -0.0679,0.95911 -0.2038,1.39069 -0.13589,0.43161 -0.34769,0.81924 -0.6354,1.16291 -0.28774,0.34368 -0.6554,0.6394 -1.10296,0.88716 -0.4396,0.24777 -0.9711,0.4356 -1.5945,0.56347 l 0,0.048 c 0.67935,0.0719 1.27079,0.22779 1.77433,0.46756 0.50351,0.23179 0.91912,0.52351 1.24682,0.87517 0.32768,0.35168 0.57145,0.7513 0.73131,1.19887 0.16783,0.44759 0.25175,0.91914 0.25176,1.41467"
         style="fill:#ff0000"
         id="path3481"
         inkscape:connector-curvature="0" />
      <path
         d="m 407.88656,259.89548 0,-2.62553 2.33779,0 0,2.62553 -2.33779,0"
         style="fill:#ff0000"
         id="path3483"
         inkscape:connector-curvature="0" />
      <path
         d="m 413.68908,259.89548 0,-1.52257 c 0.40762,-0.93511 0.90315,-1.75833 1.4866,-2.46967 0.59144,-0.71931 1.21085,-1.3667 1.85825,-1.94216 0.64738,-0.58345 1.28677,-1.12294 1.91819,-1.61848 0.63938,-0.49552 1.21484,-0.99105 1.72637,-1.48659 0.5115,-0.49553 0.92312,-1.01504 1.23483,-1.55853 0.31969,-0.54348 0.47954,-1.1589 0.47955,-1.84626 -1e-5,-0.47953 -0.0719,-0.89914 -0.2158,-1.25881 -0.14387,-0.36764 -0.35168,-0.67535 -0.62341,-0.92313 -0.27175,-0.24775 -0.59944,-0.43158 -0.98307,-0.55148 -0.37566,-0.12786 -0.79526,-0.1918 -1.25881,-0.19182 -0.4316,2e-5 -0.83922,0.06 -1.22285,0.17983 -0.37565,0.1199 -0.71133,0.29973 -1.00705,0.53949 -0.29573,0.23979 -0.5395,0.53951 -0.73131,0.89915 -0.18383,0.35168 -0.30372,0.7633 -0.35966,1.23484 l -2.20592,-0.20381 c 0.0719,-0.60741 0.23977,-1.17887 0.50353,-1.71438 0.26374,-0.53548 0.6274,-1.00304 1.09097,-1.40268 0.46356,-0.4076 1.01903,-0.7273 1.66642,-0.95909 0.65538,-0.23177 1.41067,-0.34766 2.26587,-0.34768 0.8392,2e-5 1.58649,0.0999 2.24188,0.29972 0.65537,0.19983 1.20685,0.49555 1.65444,0.88716 0.45556,0.39165 0.80323,0.87519 1.04301,1.45064 0.23977,0.57547 0.35965,1.23884 0.35967,1.99012 -2e-5,0.56747 -0.10392,1.10696 -0.31171,1.61847 -0.19982,0.51153 -0.47157,0.99907 -0.81523,1.46262 -0.3357,0.46357 -0.72733,0.91115 -1.17489,1.34273 -0.44759,0.4316 -0.91515,0.8552 -1.40268,1.2708 -0.48755,0.40763 -0.97908,0.81524 -1.47461,1.22285 -0.49554,0.39963 -0.96309,0.80325 -1.40267,1.21086 -0.4316,0.40762 -0.81924,0.82322 -1.16291,1.24682 -0.34368,0.41561 -0.61142,0.8512 -0.80324,1.30677 l 8.81169,0 0,1.83427 -11.18545,0"
         style="fill:#ff0000"
         id="path3485"
         inkscape:connector-curvature="0" />
      <path
         d="m 438.74544,254.39267 c -10e-6,0.84721 -0.12789,1.62247 -0.38364,2.32581 -0.25577,0.70333 -0.63541,1.31076 -1.13892,1.82228 -0.50354,0.50352 -1.13095,0.89515 -1.88223,1.17489 -0.7433,0.27973 -1.60649,0.4196 -2.58955,0.4196 -0.88717,0 -1.66244,-0.1039 -2.32581,-0.3117 -0.65538,-0.20781 -1.21086,-0.49154 -1.66643,-0.8512 -0.45557,-0.36765 -0.81922,-0.79525 -1.09097,-1.28279 -0.26375,-0.48754 -0.45157,-1.01104 -0.56346,-1.57052 l 2.18194,-0.25176 c 0.0879,0.3197 0.21179,0.63141 0.37165,0.93512 0.15984,0.29572 0.37564,0.56347 0.64739,0.80324 0.27973,0.23178 0.61941,0.4196 1.01903,0.56347 0.40761,0.13587 0.89915,0.20381 1.47461,0.2038 0.55947,1e-5 1.06699,-0.0839 1.52257,-0.25176 0.45556,-0.17583 0.84319,-0.43159 1.1629,-0.76727 0.32768,-0.33568 0.57944,-0.7473 0.75529,-1.23484 0.17582,-0.48753 0.26374,-1.04701 0.26375,-1.67842 -10e-6,-0.5195 -0.0839,-0.99505 -0.25177,-1.42665 -0.16785,-0.43958 -0.40762,-0.81522 -0.71932,-1.12694 -0.31171,-0.31969 -0.69535,-0.56745 -1.15091,-0.74329 -0.44759,-0.17583 -0.9591,-0.26375 -1.53455,-0.26376 -0.35967,1e-5 -0.69136,0.032 -0.99506,0.0959 -0.30372,0.064 -0.58746,0.15187 -0.8512,0.26376 -0.25576,0.1119 -0.49154,0.24377 -0.70733,0.39562 -0.20781,0.14387 -0.40363,0.29573 -0.58745,0.45557 l -2.11001,0 0.56347,-9.08742 9.60294,0 0,1.83427 -7.6368,0 -0.32369,5.35894 c 0.38363,-0.29571 0.86318,-0.54747 1.43864,-0.75529 0.57545,-0.21578 1.25881,-0.32368 2.05007,-0.32369 0.8392,1e-5 1.59448,0.12789 2.26586,0.38364 0.67136,0.25576 1.24282,0.61942 1.71438,1.09097 0.47155,0.46357 0.8352,1.01904 1.09097,1.66642 0.25575,0.6474 0.38363,1.35873 0.38364,2.13399"
         style="fill:#ff0000"
         id="path3487"
         inkscape:connector-curvature="0" />
    </g>
    <g
       style="font-size:24.55283165px;font-style:normal;font-variant:normal;font-weight:normal;font-stretch:normal;text-align:start;line-height:125%;letter-spacing:0px;word-spacing:0px;writing-mode:lr-tb;text-anchor:start;fill:#000000;fill-opacity:1;stroke:none;font-family:Liberation Sans;-inkscape-font-specification:Liberation Sans"
       id="text4103-1-31-8"
       transform="translate(2.222229,-6.1111298)">
      <path
         d="m 337.58538,423.40414 c -10e-6,1.08165 -0.10391,1.99279 -0.3117,2.73342 -0.20249,0.7353 -0.48222,1.33207 -0.83921,1.79031 -0.35168,0.4529 -0.76728,0.77793 -1.24683,0.97508 -0.47955,0.19714 -0.99107,0.29572 -1.53455,0.29572 -0.54882,0 -1.06033,-0.0986 -1.53455,-0.29572 -0.47422,-0.19715 -0.88716,-0.52218 -1.23883,-0.97508 -0.34634,-0.45291 -0.62075,-1.04701 -0.82322,-1.78232 -0.19715,-0.74063 -0.29573,-1.65444 -0.29572,-2.74141 -10e-6,-1.13493 0.0986,-2.07271 0.29572,-2.81335 0.20247,-0.74595 0.47954,-1.34006 0.83121,-1.78232 0.35167,-0.44224 0.76728,-0.75128 1.24683,-0.92712 0.47954,-0.18115 1.00171,-0.27174 1.56652,-0.27175 0.53815,10e-6 1.04168,0.0906 1.51057,0.27175 0.47421,0.17584 0.88716,0.48488 1.23883,0.92712 0.35166,0.44226 0.62873,1.03637 0.83122,1.78232 0.20247,0.74064 0.3037,1.67842 0.30371,2.81335 m -1.46262,0 c 0,-0.89515 -0.0533,-1.63845 -0.15985,-2.2299 -0.10657,-0.59676 -0.26375,-1.07098 -0.47155,-1.42266 -0.20781,-0.35699 -0.46357,-0.60742 -0.76728,-0.75129 -0.29839,-0.14918 -0.6394,-0.22378 -1.02303,-0.22379 -0.40496,10e-6 -0.76195,0.0746 -1.07099,0.22379 -0.30905,0.1492 -0.57013,0.4023 -0.78326,0.75928 -0.20781,0.35168 -0.36499,0.8259 -0.47156,1.42266 -0.10657,0.59145 -0.15985,1.33208 -0.15985,2.22191 0,0.86319 0.0533,1.5905 0.15985,2.18194 0.11189,0.59144 0.27174,1.06832 0.47955,1.43065 0.21313,0.35699 0.47155,0.61542 0.77527,0.77526 0.30371,0.15453 0.65005,0.23179 1.03902,0.23179 0.3783,0 0.71931,-0.0773 1.02303,-0.23179 0.30371,-0.15984 0.55947,-0.41827 0.76728,-0.77526 0.21312,-0.36233 0.37564,-0.83921 0.48754,-1.43065 0.11721,-0.59144 0.17583,-1.31875 0.17583,-2.18194"
         style="font-size:16.36855507px"
         id="path3519"
         inkscape:connector-curvature="0" />
    </g>
    <g
       style="font-size:24.55283165px;font-style:normal;font-variant:normal;font-weight:normal;font-stretch:normal;text-align:start;line-height:125%;letter-spacing:0px;word-spacing:0px;writing-mode:lr-tb;text-anchor:start;fill:#000000;fill-opacity:1;stroke:none;font-family:Liberation Sans;-inkscape-font-specification:Liberation Sans"
       id="text4103-1-31-53"
       transform="translate(2.222229,-6.1111298)">
      <path
         d="m 458.50691,425.20249 c -1e-5,0.56481 -0.0853,1.08165 -0.25576,1.55054 -0.17051,0.46889 -0.42361,0.87384 -0.75928,1.21485 -0.33569,0.33569 -0.75396,0.59678 -1.25482,0.78327 -0.49554,0.18649 -1.07099,0.27973 -1.72637,0.27973 -0.59145,0 -1.10829,-0.0693 -1.55054,-0.2078 -0.43692,-0.13854 -0.80724,-0.32769 -1.11095,-0.56747 -0.30371,-0.2451 -0.54615,-0.53016 -0.72731,-0.85519 -0.17584,-0.32502 -0.30105,-0.67403 -0.37565,-1.04701 l 1.45463,-0.16784 c 0.0586,0.21313 0.1412,0.42094 0.24777,0.62341 0.10656,0.19715 0.25042,0.37565 0.43159,0.53549 0.18649,0.15453 0.41294,0.27974 0.67936,0.37565 0.27174,0.0906 0.59943,0.13587 0.98307,0.13587 0.37298,0 0.71132,-0.0559 1.01504,-0.16784 0.30371,-0.11722 0.56213,-0.28773 0.77527,-0.51152 0.21846,-0.22379 0.3863,-0.49819 0.50353,-0.82322 0.11721,-0.32503 0.17582,-0.69801 0.17583,-1.11895 -10e-6,-0.34633 -0.0559,-0.66337 -0.16784,-0.9511 -0.1119,-0.29305 -0.27175,-0.54348 -0.47955,-0.75129 -0.20781,-0.21313 -0.46357,-0.3783 -0.76728,-0.49553 -0.29839,-0.11722 -0.6394,-0.17583 -1.02303,-0.17584 -0.23978,10e-6 -0.4609,0.0213 -0.66337,0.0639 -0.20248,0.0426 -0.39164,0.10125 -0.56747,0.17584 -0.17051,0.0746 -0.32769,0.16252 -0.47155,0.26375 -0.13854,0.0959 -0.26909,0.19715 -0.39163,0.30371 l -1.40668,0 0.37565,-6.05828 6.40196,0 0,1.22284 -5.0912,0 -0.21579,3.57263 c 0.25575,-0.19714 0.57545,-0.36498 0.95909,-0.50352 0.38363,-0.14386 0.8392,-0.21579 1.36671,-0.2158 0.55947,1e-5 1.06299,0.0853 1.51058,0.25576 0.44757,0.17051 0.82854,0.41295 1.14292,0.72731 0.31436,0.30905 0.5568,0.67937 0.72731,1.11096 0.1705,0.43159 0.25575,0.90581 0.25576,1.42265"
         style="font-size:16.36855507px"
         id="path3516"
         inkscape:connector-curvature="0" />
    </g>
    <g
       style="font-size:24.55283165px;font-style:normal;font-variant:normal;font-weight:normal;font-stretch:normal;text-align:start;line-height:125%;letter-spacing:0px;word-spacing:0px;writing-mode:lr-tb;text-anchor:start;fill:#000000;fill-opacity:1;stroke:none;font-family:Liberation Sans;-inkscape-font-specification:Liberation Sans"
       id="text4103-1-31-3"
       transform="translate(2.222229,-6.1111298)">
      <path
         d="m 570.03546,429.03882 0,-1.22285 2.86929,0 0,-8.66382 -2.5416,1.81429 0,-1.35872 2.66149,-1.83028 1.32675,0 0,10.03853 2.74141,0 0,1.22285 -7.05734,0"
         style="font-size:16.36855507px"
         id="path3511"
         inkscape:connector-curvature="0" />
      <path
         d="m 586.36405,423.40414 c -10e-6,1.08165 -0.10391,1.99279 -0.3117,2.73342 -0.20249,0.7353 -0.48222,1.33207 -0.83921,1.79031 -0.35168,0.4529 -0.76729,0.77793 -1.24683,0.97508 -0.47955,0.19714 -0.99107,0.29572 -1.53455,0.29572 -0.54882,0 -1.06033,-0.0986 -1.53455,-0.29572 -0.47422,-0.19715 -0.88717,-0.52218 -1.23883,-0.97508 -0.34634,-0.45291 -0.62075,-1.04701 -0.82322,-1.78232 -0.19715,-0.74063 -0.29573,-1.65444 -0.29573,-2.74141 0,-1.13493 0.0986,-2.07271 0.29573,-2.81335 0.20247,-0.74595 0.47954,-1.34006 0.83121,-1.78232 0.35167,-0.44224 0.76727,-0.75128 1.24682,-0.92712 0.47955,-0.18115 1.00172,-0.27174 1.56653,-0.27175 0.53815,10e-6 1.04167,0.0906 1.51057,0.27175 0.47421,0.17584 0.88716,0.48488 1.23883,0.92712 0.35166,0.44226 0.62873,1.03637 0.83122,1.78232 0.20247,0.74064 0.3037,1.67842 0.30371,2.81335 m -1.46262,0 c -10e-6,-0.89515 -0.0533,-1.63845 -0.15985,-2.2299 -0.10657,-0.59676 -0.26376,-1.07098 -0.47155,-1.42266 -0.20781,-0.35699 -0.46357,-0.60742 -0.76728,-0.75129 -0.29839,-0.14918 -0.6394,-0.22378 -1.02303,-0.22379 -0.40496,10e-6 -0.76196,0.0746 -1.07099,0.22379 -0.30905,0.1492 -0.57013,0.4023 -0.78326,0.75928 -0.20781,0.35168 -0.365,0.8259 -0.47156,1.42266 -0.10657,0.59145 -0.15985,1.33208 -0.15985,2.22191 0,0.86319 0.0533,1.5905 0.15985,2.18194 0.11189,0.59144 0.27174,1.06832 0.47955,1.43065 0.21313,0.35699 0.47155,0.61542 0.77527,0.77526 0.30371,0.15453 0.65005,0.23179 1.03902,0.23179 0.3783,0 0.71931,-0.0773 1.02303,-0.23179 0.30371,-0.15984 0.55947,-0.41827 0.76728,-0.77526 0.21312,-0.36233 0.37564,-0.83921 0.48754,-1.43065 0.11721,-0.59144 0.17582,-1.31875 0.17583,-2.18194"
         style="font-size:16.36855507px"
         id="path3513"
         inkscape:connector-curvature="0" />
    </g>
    <g
       style="font-size:24.55283165px;font-style:normal;font-variant:normal;font-weight:normal;font-stretch:normal;text-align:start;line-height:125%;letter-spacing:0px;word-spacing:0px;writing-mode:lr-tb;text-anchor:start;fill:#000000;fill-opacity:1;stroke:none;font-family:Liberation Sans;-inkscape-font-specification:Liberation Sans"
       id="text4103-1-31-88"
       transform="translate(2.222229,-6.1111298)">
      <path
         d="m 693.27667,428.87103 0,-1.22284 2.86929,0 0,-8.66383 -2.5416,1.81429 0,-1.35872 2.66149,-1.83027 1.32675,0 0,10.03853 2.74141,0 0,1.22284 -7.05734,0"
         style="font-size:16.36855507px"
         id="path3506"
         inkscape:connector-curvature="0" />
      <path
         d="m 709.55731,425.20249 c -10e-6,0.56481 -0.0853,1.08165 -0.25576,1.55054 -0.17051,0.46889 -0.42361,0.87384 -0.75928,1.21485 -0.3357,0.33569 -0.75397,0.59678 -1.25482,0.78327 -0.49554,0.18649 -1.071,0.27973 -1.72637,0.27973 -0.59145,0 -1.10829,-0.0693 -1.55054,-0.2078 -0.43692,-0.13854 -0.80724,-0.32769 -1.11095,-0.56747 -0.30372,-0.2451 -0.54615,-0.53016 -0.72731,-0.85519 -0.17584,-0.32502 -0.30105,-0.67403 -0.37565,-1.04701 l 1.45463,-0.16784 c 0.0586,0.21313 0.1412,0.42094 0.24776,0.62341 0.10657,0.19715 0.25043,0.37565 0.4316,0.53549 0.18648,0.15453 0.41294,0.27974 0.67936,0.37565 0.27174,0.0906 0.59943,0.13587 0.98307,0.13587 0.37297,0 0.71132,-0.0559 1.01504,-0.16784 0.30371,-0.11722 0.56213,-0.28773 0.77527,-0.51152 0.21845,-0.22379 0.38629,-0.49819 0.50352,-0.82322 0.11722,-0.32503 0.17583,-0.69801 0.17584,-1.11895 -10e-6,-0.34633 -0.056,-0.66337 -0.16784,-0.9511 -0.1119,-0.29305 -0.27175,-0.54348 -0.47955,-0.75129 -0.20781,-0.21313 -0.46357,-0.3783 -0.76728,-0.49553 -0.29839,-0.11722 -0.6394,-0.17583 -1.02303,-0.17584 -0.23978,10e-6 -0.4609,0.0213 -0.66338,0.0639 -0.20248,0.0426 -0.39163,0.10125 -0.56746,0.17584 -0.17051,0.0746 -0.32769,0.16252 -0.47156,0.26375 -0.13853,0.0959 -0.26908,0.19715 -0.39163,0.30371 l -1.40667,0 0.37565,-6.05828 6.40196,0 0,1.22284 -5.0912,0 -0.2158,3.57263 c 0.25576,-0.19714 0.57546,-0.36498 0.9591,-0.50352 0.38363,-0.14386 0.8392,-0.21579 1.36671,-0.2158 0.55947,1e-5 1.06299,0.0853 1.51057,0.25576 0.44757,0.17051 0.82855,0.41295 1.14293,0.72731 0.31436,0.30905 0.5568,0.67937 0.72731,1.11096 0.1705,0.43159 0.25575,0.90581 0.25576,1.42265"
         style="font-size:16.36855507px"
         id="path3508"
         inkscape:connector-curvature="0" />
    </g>
    <g
       style="font-size:24.55283165px;font-style:normal;font-variant:normal;font-weight:normal;font-stretch:normal;text-align:start;line-height:125%;letter-spacing:0px;word-spacing:0px;writing-mode:lr-tb;text-anchor:start;fill:#000000;fill-opacity:1;stroke:none;font-family:Liberation Sans;-inkscape-font-specification:Liberation Sans"
       id="text4103-1-31-2"
       transform="translate(2.222229,-6.1111298)">
      <path
         d="m 816.66227,429.03882 0,-1.01504 c 0.27175,-0.62341 0.6021,-1.17223 0.99107,-1.64645 0.39429,-0.47954 0.80723,-0.91114 1.23883,-1.29478 0.43159,-0.38896 0.85785,-0.74862 1.27879,-1.07898 0.42626,-0.33035 0.8099,-0.6607 1.15092,-0.99107 0.341,-0.33034 0.61541,-0.67668 0.82322,-1.03901 0.21313,-0.36232 0.31969,-0.7726 0.3197,-1.23084 -10e-6,-0.31969 -0.048,-0.59943 -0.14387,-0.83921 -0.0959,-0.24509 -0.23445,-0.45023 -0.4156,-0.61542 -0.18117,-0.16517 -0.39963,-0.28772 -0.65539,-0.36765 -0.25043,-0.0852 -0.53017,-0.12787 -0.8392,-0.12788 -0.28774,1e-5 -0.55948,0.04 -0.81523,0.11988 -0.25044,0.0799 -0.47423,0.19982 -0.67137,0.35966 -0.19715,0.15986 -0.35966,0.35967 -0.48754,0.59944 -0.12255,0.23445 -0.20248,0.50886 -0.23977,0.82322 l -1.47062,-0.13587 c 0.048,-0.40494 0.15985,-0.78592 0.33569,-1.14292 0.17583,-0.35699 0.41827,-0.66869 0.72731,-0.93512 0.30904,-0.27173 0.67936,-0.48486 1.11095,-0.6394 0.43692,-0.15451 0.94044,-0.23177 1.51058,-0.23178 0.55946,10e-6 1.05766,0.0666 1.49459,0.19981 0.43691,0.13322 0.80456,0.33037 1.10296,0.59145 0.3037,0.26109 0.53548,0.58346 0.69534,0.96708 0.15984,0.38365 0.23977,0.8259 0.23977,1.32675 0,0.37832 -0.0693,0.73798 -0.2078,1.07898 -0.13322,0.34102 -0.31438,0.66605 -0.54349,0.97508 -0.22379,0.30905 -0.48488,0.60744 -0.78326,0.89516 -0.29839,0.28773 -0.6101,0.57013 -0.93512,0.8472 -0.32503,0.27175 -0.65272,0.54349 -0.98307,0.81523 -0.33036,0.26642 -0.64206,0.5355 -0.93512,0.80724 -0.28773,0.27174 -0.54615,0.54882 -0.77526,0.83121 -0.22912,0.27708 -0.40762,0.56747 -0.5355,0.87118 l 5.87446,0 0,1.22285 -7.45697,0"
         style="font-size:16.36855507px"
         id="path3501"
         inkscape:connector-curvature="0" />
      <path
         d="m 833.41447,423.40414 c -1e-5,1.08165 -0.10391,1.99279 -0.31171,2.73342 -0.20248,0.7353 -0.48222,1.33207 -0.83921,1.79031 -0.35167,0.4529 -0.76728,0.77793 -1.24682,0.97508 -0.47955,0.19714 -0.99107,0.29572 -1.53455,0.29572 -0.54882,0 -1.06034,-0.0986 -1.53456,-0.29572 -0.47422,-0.19715 -0.88716,-0.52218 -1.23883,-0.97508 -0.34634,-0.45291 -0.62075,-1.04701 -0.82322,-1.78232 -0.19715,-0.74063 -0.29572,-1.65444 -0.29572,-2.74141 0,-1.13493 0.0986,-2.07271 0.29572,-2.81335 0.20247,-0.74595 0.47955,-1.34006 0.83122,-1.78232 0.35166,-0.44224 0.76727,-0.75128 1.24682,-0.92712 0.47954,-0.18115 1.00172,-0.27174 1.56652,-0.27175 0.53816,10e-6 1.04168,0.0906 1.51058,0.27175 0.47421,0.17584 0.88715,0.48488 1.23883,0.92712 0.35166,0.44226 0.62873,1.03637 0.83121,1.78232 0.20247,0.74064 0.30371,1.67842 0.30372,2.81335 m -1.46262,0 c -1e-5,-0.89515 -0.0533,-1.63845 -0.15985,-2.2299 -0.10658,-0.59676 -0.26376,-1.07098 -0.47156,-1.42266 -0.20781,-0.35699 -0.46357,-0.60742 -0.76727,-0.75129 -0.29839,-0.14918 -0.63941,-0.22378 -1.02304,-0.22379 -0.40495,10e-6 -0.76195,0.0746 -1.07099,0.22379 -0.30904,0.1492 -0.57013,0.4023 -0.78326,0.75928 -0.20781,0.35168 -0.36499,0.8259 -0.47155,1.42266 -0.10657,0.59145 -0.15986,1.33208 -0.15985,2.22191 -10e-6,0.86319 0.0533,1.5905 0.15985,2.18194 0.11189,0.59144 0.27174,1.06832 0.47954,1.43065 0.21313,0.35699 0.47156,0.61542 0.77527,0.77526 0.30371,0.15453 0.65005,0.23179 1.03902,0.23179 0.37831,0 0.71932,-0.0773 1.02304,-0.23179 0.3037,-0.15984 0.55946,-0.41827 0.76727,-0.77526 0.21313,-0.36233 0.37564,-0.83921 0.48754,-1.43065 0.11722,-0.59144 0.17583,-1.31875 0.17584,-2.18194"
         style="font-size:16.36855507px"
         id="path3503"
         inkscape:connector-curvature="0" />
    </g>
    <g
       style="font-size:24.55283165px;font-style:normal;font-variant:normal;font-weight:normal;font-stretch:normal;text-align:start;line-height:125%;letter-spacing:0px;word-spacing:0px;writing-mode:lr-tb;text-anchor:start;fill:#000000;fill-opacity:1;stroke:none;font-family:Liberation Sans;-inkscape-font-specification:Liberation Sans"
       id="text4103-1-5"
       transform="translate(2.6993622,-62.986847)">
      <path
         d="m 305.18926,317.44682 c 0,0.56481 -0.0799,1.08432 -0.23977,1.55853 -0.15453,0.4689 -0.38631,0.87385 -0.69534,1.21486 -0.30372,0.33568 -0.68203,0.59943 -1.13493,0.79125 -0.45291,0.18649 -0.97509,0.27974 -1.56652,0.27974 -0.65539,0 -1.22818,-0.12522 -1.71838,-0.37565 -0.49021,-0.25043 -0.89782,-0.61009 -1.22285,-1.07898 -0.32503,-0.47422 -0.57013,-1.05234 -0.7353,-1.73436 -0.15985,-0.68735 -0.23978,-1.46795 -0.23978,-2.34179 0,-1.00172 0.0906,-1.88089 0.27175,-2.63752 0.18648,-0.75661 0.4529,-1.38801 0.79924,-1.89421 0.34634,-0.50618 0.76727,-0.88715 1.26281,-1.14292 0.50086,-0.25575 1.06566,-0.38363 1.6944,-0.38364 0.38363,10e-6 0.74329,0.04 1.07898,0.11989 0.33568,0.0799 0.63939,0.21048 0.91114,0.39163 0.27707,0.17584 0.51951,0.41029 0.72732,0.70334 0.20779,0.29306 0.37297,0.65272 0.49553,1.07898 l -1.3747,0.24776 c -0.1492,-0.48486 -0.38898,-0.83387 -0.71933,-1.04701 -0.32503,-0.21845 -0.70334,-0.32768 -1.13492,-0.32769 -0.3943,10e-6 -0.7513,0.0933 -1.07099,0.27974 -0.31971,0.1865 -0.59145,0.46623 -0.81523,0.83921 -0.2238,0.36766 -0.39697,0.83122 -0.51951,1.39068 -0.11723,0.55948 -0.17584,1.2122 -0.17584,1.95816 0.26109,-0.48487 0.62874,-0.85253 1.10296,-1.10296 0.47422,-0.25576 1.0177,-0.38363 1.63046,-0.38364 0.51151,1e-5 0.97508,0.0826 1.39069,0.24776 0.4156,0.16519 0.76993,0.40496 1.063,0.71933 0.29837,0.30904 0.52749,0.68735 0.68735,1.13492 0.16517,0.44226 0.24776,0.94045 0.24776,1.49459 m -1.46262,0.0639 c 0,-0.38896 -0.048,-0.74063 -0.14386,-1.055 -0.0959,-0.31437 -0.23978,-0.58078 -0.43159,-0.79925 -0.19183,-0.22378 -0.42894,-0.39429 -0.71133,-0.51151 -0.28241,-0.12255 -0.6101,-0.18382 -0.98307,-0.18383 -0.26109,10e-6 -0.52485,0.04 -0.79126,0.11989 -0.26642,0.0746 -0.50885,0.19981 -0.72731,0.37564 -0.21314,0.17051 -0.38897,0.39697 -0.5275,0.67936 -0.13321,0.28241 -0.19982,0.62608 -0.19981,1.03103 -1e-5,0.41561 0.0533,0.80458 0.15984,1.1669 0.10657,0.357 0.25842,0.6687 0.45558,0.93511 0.20247,0.26642 0.44491,0.47689 0.72731,0.63141 0.2824,0.15452 0.59943,0.23178 0.9511,0.23178 0.34634,0 0.65538,-0.0586 0.92713,-0.17583 0.27706,-0.12255 0.51151,-0.29572 0.70333,-0.51951 0.19182,-0.22912 0.33834,-0.50619 0.43959,-0.83122 0.10123,-0.32502 0.15185,-0.69001 0.15185,-1.09497"
         style="font-size:16.36855507px"
         id="path3539"
         inkscape:connector-curvature="0" />
      <path
         d="m 314.38059,315.49666 c -10e-6,1.08166 -0.10391,1.99279 -0.3117,2.73343 -0.20249,0.7353 -0.48222,1.33207 -0.83921,1.79031 -0.35168,0.4529 -0.76728,0.77793 -1.24683,0.97508 -0.47955,0.19714 -0.99107,0.29572 -1.53455,0.29572 -0.54882,0 -1.06033,-0.0986 -1.53455,-0.29572 -0.47422,-0.19715 -0.88716,-0.52218 -1.23883,-0.97508 -0.34634,-0.45291 -0.62075,-1.04701 -0.82322,-1.78232 -0.19715,-0.74063 -0.29573,-1.65444 -0.29573,-2.74142 0,-1.13492 0.0986,-2.0727 0.29573,-2.81334 0.20247,-0.74595 0.47954,-1.34006 0.83121,-1.78232 0.35167,-0.44224 0.76728,-0.75128 1.24683,-0.92712 0.47954,-0.18116 1.00171,-0.27174 1.56652,-0.27175 0.53815,10e-6 1.04168,0.0906 1.51057,0.27175 0.47421,0.17584 0.88716,0.48488 1.23883,0.92712 0.35166,0.44226 0.62873,1.03637 0.83122,1.78232 0.20247,0.74064 0.3037,1.67842 0.30371,2.81334 m -1.46262,0 c -1e-5,-0.89514 -0.0533,-1.63844 -0.15985,-2.22989 -0.10657,-0.59676 -0.26375,-1.07098 -0.47155,-1.42266 -0.20781,-0.35699 -0.46357,-0.60742 -0.76728,-0.75129 -0.29839,-0.14918 -0.6394,-0.22378 -1.02303,-0.22379 -0.40496,10e-6 -0.76195,0.0746 -1.07099,0.22379 -0.30905,0.1492 -0.57013,0.4023 -0.78326,0.75928 -0.20781,0.35168 -0.36499,0.8259 -0.47156,1.42266 -0.10657,0.59145 -0.15985,1.33208 -0.15985,2.2219 0,0.86319 0.0533,1.59051 0.15985,2.18195 0.11189,0.59144 0.27174,1.06832 0.47955,1.43065 0.21313,0.35699 0.47155,0.61542 0.77527,0.77526 0.30371,0.15453 0.65005,0.23179 1.03902,0.23179 0.3783,0 0.71931,-0.0773 1.02303,-0.23179 0.30371,-0.15984 0.55947,-0.41827 0.76728,-0.77526 0.21312,-0.36233 0.37564,-0.83921 0.48754,-1.43065 0.11721,-0.59144 0.17582,-1.31876 0.17583,-2.18195"
         style="font-size:16.36855507px"
         id="path3541"
         inkscape:connector-curvature="0" />
      <path
         d="m 323.49199,315.49666 c 0,1.08166 -0.10391,1.99279 -0.3117,2.73343 -0.20249,0.7353 -0.48222,1.33207 -0.83921,1.79031 -0.35167,0.4529 -0.76728,0.77793 -1.24682,0.97508 -0.47956,0.19714 -0.99107,0.29572 -1.53456,0.29572 -0.54881,0 -1.06033,-0.0986 -1.53455,-0.29572 -0.47422,-0.19715 -0.88716,-0.52218 -1.23883,-0.97508 -0.34634,-0.45291 -0.62075,-1.04701 -0.82322,-1.78232 -0.19715,-0.74063 -0.29572,-1.65444 -0.29572,-2.74142 0,-1.13492 0.0986,-2.0727 0.29572,-2.81334 0.20247,-0.74595 0.47954,-1.34006 0.83121,-1.78232 0.35167,-0.44224 0.76728,-0.75128 1.24683,-0.92712 0.47954,-0.18116 1.00172,-0.27174 1.56652,-0.27175 0.53815,10e-6 1.04168,0.0906 1.51057,0.27175 0.47422,0.17584 0.88716,0.48488 1.23884,0.92712 0.35166,0.44226 0.62873,1.03637 0.83121,1.78232 0.20247,0.74064 0.30371,1.67842 0.30371,2.81334 m -1.46262,0 c 0,-0.89514 -0.0533,-1.63844 -0.15984,-2.22989 -0.10658,-0.59676 -0.26376,-1.07098 -0.47156,-1.42266 -0.20781,-0.35699 -0.46357,-0.60742 -0.76728,-0.75129 -0.29839,-0.14918 -0.6394,-0.22378 -1.02303,-0.22379 -0.40496,10e-6 -0.76195,0.0746 -1.07099,0.22379 -0.30904,0.1492 -0.57013,0.4023 -0.78326,0.75928 -0.20781,0.35168 -0.36499,0.8259 -0.47156,1.42266 -0.10656,0.59145 -0.15985,1.33208 -0.15985,2.2219 0,0.86319 0.0533,1.59051 0.15985,2.18195 0.1119,0.59144 0.27175,1.06832 0.47955,1.43065 0.21313,0.35699 0.47155,0.61542 0.77527,0.77526 0.30371,0.15453 0.65005,0.23179 1.03902,0.23179 0.3783,0 0.71932,-0.0773 1.02303,-0.23179 0.30371,-0.15984 0.55947,-0.41827 0.76728,-0.77526 0.21313,-0.36233 0.37564,-0.83921 0.48754,-1.43065 0.11722,-0.59144 0.17583,-1.31876 0.17583,-2.18195"
         style="font-size:16.36855507px"
         id="path3543"
         inkscape:connector-curvature="0" />
    </g>
    <g
       style="font-size:24.55283165px;font-style:normal;font-variant:normal;font-weight:normal;font-stretch:normal;text-align:start;line-height:125%;letter-spacing:0px;word-spacing:0px;writing-mode:lr-tb;text-anchor:start;fill:#000000;fill-opacity:1;stroke:none;font-family:Liberation Sans;-inkscape-font-specification:Liberation Sans"
       id="text4103-1-3"
       transform="translate(2.6993622,-44.792924)">
      <path
         d="m 303.84653,349.81625 0,2.54959 -1.35872,0 0,-2.54959 -5.30699,0 0,-1.11894 5.15514,-7.59284 1.51057,0 0,7.57685 1.58251,0 0,1.13493 -1.58251,0 m -1.35872,-7.08931 c -0.0107,0.0266 -0.0373,0.0799 -0.0799,0.15985 -0.0426,0.0746 -0.0906,0.15986 -0.14387,0.25576 -0.0533,0.0959 -0.10923,0.19449 -0.16784,0.29572 -0.0533,0.0959 -0.10124,0.17584 -0.14386,0.23977 l -2.88528,4.25199 c -0.0266,0.0426 -0.0666,0.0986 -0.11989,0.16784 -0.048,0.0693 -0.0986,0.14121 -0.15185,0.2158 -0.0533,0.0693 -0.10657,0.13854 -0.15985,0.2078 -0.0533,0.0693 -0.0959,0.12256 -0.12788,0.15985 l 3.98024,0 0,-5.95438"
         style="font-size:16.36855507px"
         id="path3532"
         inkscape:connector-curvature="0" />
      <path
         d="m 314.38059,346.73116 c -10e-6,1.08165 -0.10391,1.99279 -0.3117,2.73342 -0.20249,0.73531 -0.48222,1.33208 -0.83921,1.79031 -0.35168,0.45291 -0.76728,0.77794 -1.24683,0.97508 -0.47955,0.19715 -0.99107,0.29572 -1.53455,0.29572 -0.54882,0 -1.06033,-0.0986 -1.53455,-0.29572 -0.47422,-0.19714 -0.88716,-0.52217 -1.23883,-0.97508 -0.34634,-0.4529 -0.62075,-1.04701 -0.82322,-1.78232 -0.19715,-0.74063 -0.29573,-1.65443 -0.29573,-2.74141 0,-1.13492 0.0986,-2.0727 0.29573,-2.81334 0.20247,-0.74596 0.47954,-1.34006 0.83121,-1.78232 0.35167,-0.44224 0.76728,-0.75128 1.24683,-0.92713 0.47954,-0.18115 1.00171,-0.27173 1.56652,-0.27174 0.53815,1e-5 1.04168,0.0906 1.51057,0.27174 0.47421,0.17585 0.88716,0.48489 1.23883,0.92713 0.35166,0.44226 0.62873,1.03636 0.83122,1.78232 0.20247,0.74064 0.3037,1.67842 0.30371,2.81334 m -1.46262,0 c -1e-5,-0.89515 -0.0533,-1.63845 -0.15985,-2.22989 -0.10657,-0.59677 -0.26375,-1.07098 -0.47155,-1.42266 -0.20781,-0.35699 -0.46357,-0.60742 -0.76728,-0.75129 -0.29839,-0.14919 -0.6394,-0.22378 -1.02303,-0.22379 -0.40496,1e-5 -0.76195,0.0746 -1.07099,0.22379 -0.30905,0.1492 -0.57013,0.40229 -0.78326,0.75928 -0.20781,0.35168 -0.36499,0.8259 -0.47156,1.42266 -0.10657,0.59145 -0.15985,1.33208 -0.15985,2.2219 0,0.86319 0.0533,1.5905 0.15985,2.18194 0.11189,0.59145 0.27174,1.06833 0.47955,1.43065 0.21313,0.357 0.47155,0.61542 0.77527,0.77527 0.30371,0.15452 0.65005,0.23178 1.03902,0.23178 0.3783,0 0.71931,-0.0773 1.02303,-0.23178 0.30371,-0.15985 0.55947,-0.41827 0.76728,-0.77527 0.21312,-0.36232 0.37564,-0.8392 0.48754,-1.43065 0.11721,-0.59144 0.17582,-1.31875 0.17583,-2.18194"
         style="font-size:16.36855507px"
         id="path3534"
         inkscape:connector-curvature="0" />
      <path
         d="m 323.49199,346.73116 c 0,1.08165 -0.10391,1.99279 -0.3117,2.73342 -0.20249,0.73531 -0.48222,1.33208 -0.83921,1.79031 -0.35167,0.45291 -0.76728,0.77794 -1.24682,0.97508 -0.47956,0.19715 -0.99107,0.29572 -1.53456,0.29572 -0.54881,0 -1.06033,-0.0986 -1.53455,-0.29572 -0.47422,-0.19714 -0.88716,-0.52217 -1.23883,-0.97508 -0.34634,-0.4529 -0.62075,-1.04701 -0.82322,-1.78232 -0.19715,-0.74063 -0.29572,-1.65443 -0.29572,-2.74141 0,-1.13492 0.0986,-2.0727 0.29572,-2.81334 0.20247,-0.74596 0.47954,-1.34006 0.83121,-1.78232 0.35167,-0.44224 0.76728,-0.75128 1.24683,-0.92713 0.47954,-0.18115 1.00172,-0.27173 1.56652,-0.27174 0.53815,1e-5 1.04168,0.0906 1.51057,0.27174 0.47422,0.17585 0.88716,0.48489 1.23884,0.92713 0.35166,0.44226 0.62873,1.03636 0.83121,1.78232 0.20247,0.74064 0.30371,1.67842 0.30371,2.81334 m -1.46262,0 c 0,-0.89515 -0.0533,-1.63845 -0.15984,-2.22989 -0.10658,-0.59677 -0.26376,-1.07098 -0.47156,-1.42266 -0.20781,-0.35699 -0.46357,-0.60742 -0.76728,-0.75129 -0.29839,-0.14919 -0.6394,-0.22378 -1.02303,-0.22379 -0.40496,1e-5 -0.76195,0.0746 -1.07099,0.22379 -0.30904,0.1492 -0.57013,0.40229 -0.78326,0.75928 -0.20781,0.35168 -0.36499,0.8259 -0.47156,1.42266 -0.10656,0.59145 -0.15985,1.33208 -0.15985,2.2219 0,0.86319 0.0533,1.5905 0.15985,2.18194 0.1119,0.59145 0.27175,1.06833 0.47955,1.43065 0.21313,0.357 0.47155,0.61542 0.77527,0.77527 0.30371,0.15452 0.65005,0.23178 1.03902,0.23178 0.3783,0 0.71932,-0.0773 1.02303,-0.23178 0.30371,-0.15985 0.55947,-0.41827 0.76728,-0.77527 0.21313,-0.36232 0.37564,-0.8392 0.48754,-1.43065 0.11722,-0.59144 0.17583,-1.31875 0.17583,-2.18194"
         style="font-size:16.36855507px"
         id="path3536"
         inkscape:connector-curvature="0" />
    </g>
    <g
       style="font-size:24.55283165px;font-style:normal;font-variant:normal;font-weight:normal;font-stretch:normal;text-align:start;line-height:125%;letter-spacing:0px;word-spacing:0px;writing-mode:lr-tb;text-anchor:start;fill:#000000;fill-opacity:1;stroke:none;font-family:Liberation Sans;-inkscape-font-specification:Liberation Sans"
       id="text4103-1-31"
       transform="translate(2.6993622,-27.733948)">
      <path
         d="m 297.6284,384.73529 0,-1.01504 c 0.27174,-0.62341 0.6021,-1.17223 0.99106,-1.64645 0.3943,-0.47954 0.80724,-0.91113 1.23883,-1.29478 0.43159,-0.38896 0.85786,-0.74862 1.2788,-1.07898 0.42626,-0.33035 0.8099,-0.6607 1.15091,-0.99106 0.34101,-0.33035 0.61542,-0.67669 0.82323,-1.03902 0.21312,-0.36232 0.31969,-0.7726 0.31969,-1.23084 0,-0.31969 -0.048,-0.59943 -0.14386,-0.83921 -0.0959,-0.24509 -0.23445,-0.45023 -0.41561,-0.61542 -0.18117,-0.16517 -0.39963,-0.28772 -0.65538,-0.36765 -0.25044,-0.0852 -0.53017,-0.12787 -0.83921,-0.12788 -0.28773,10e-6 -0.55947,0.04 -0.81523,0.11989 -0.25043,0.0799 -0.47422,0.19982 -0.67137,0.35966 -0.19715,0.15985 -0.35966,0.35967 -0.48754,0.59943 -0.12255,0.23445 -0.20247,0.50886 -0.23977,0.82322 l -1.47061,-0.13587 c 0.048,-0.40494 0.15985,-0.78591 0.33568,-1.14292 0.17583,-0.35699 0.41827,-0.66869 0.72732,-0.93512 0.30904,-0.27173 0.67935,-0.48486 1.11095,-0.63939 0.43691,-0.15451 0.94044,-0.23177 1.51057,-0.23179 0.55947,2e-5 1.05767,0.0666 1.49459,0.19982 0.43692,0.13322 0.80457,0.33036 1.10296,0.59144 0.30371,0.2611 0.53549,0.58346 0.69534,0.96709 0.15985,0.38364 0.23977,0.82589 0.23978,1.32674 -1e-5,0.37832 -0.0693,0.73798 -0.20781,1.07899 -0.13321,0.34101 -0.31437,0.66604 -0.54348,0.97508 -0.2238,0.30904 -0.48489,0.60743 -0.78326,0.89515 -0.29839,0.28773 -0.6101,0.57013 -0.93512,0.8472 -0.32503,0.27175 -0.65272,0.54349 -0.98307,0.81523 -0.33036,0.26642 -0.64207,0.5355 -0.93512,0.80724 -0.28773,0.27175 -0.54616,0.54882 -0.77527,0.83122 -0.22912,0.27707 -0.40762,0.56746 -0.53549,0.87117 l 5.87445,0 0,1.22285 -7.45696,0"
         style="font-size:16.36855507px"
         id="path3525"
         inkscape:connector-curvature="0" />
      <path
         d="m 314.38059,379.10061 c -10e-6,1.08165 -0.10391,1.99279 -0.3117,2.73342 -0.20249,0.73531 -0.48222,1.33208 -0.83921,1.79031 -0.35168,0.45291 -0.76728,0.77793 -1.24683,0.97508 -0.47955,0.19715 -0.99107,0.29572 -1.53455,0.29572 -0.54882,0 -1.06033,-0.0986 -1.53455,-0.29572 -0.47422,-0.19715 -0.88716,-0.52217 -1.23883,-0.97508 -0.34634,-0.45291 -0.62075,-1.04701 -0.82322,-1.78232 -0.19715,-0.74063 -0.29573,-1.65443 -0.29573,-2.74141 0,-1.13493 0.0986,-2.07271 0.29573,-2.81335 0.20247,-0.74595 0.47954,-1.34006 0.83121,-1.78232 0.35167,-0.44224 0.76728,-0.75128 1.24683,-0.92712 0.47954,-0.18115 1.00171,-0.27173 1.56652,-0.27175 0.53815,2e-5 1.04168,0.0906 1.51057,0.27175 0.47421,0.17584 0.88716,0.48488 1.23883,0.92712 0.35166,0.44226 0.62873,1.03637 0.83122,1.78232 0.20247,0.74064 0.3037,1.67842 0.30371,2.81335 m -1.46262,0 c -1e-5,-0.89515 -0.0533,-1.63845 -0.15985,-2.2299 -0.10657,-0.59676 -0.26375,-1.07098 -0.47155,-1.42266 -0.20781,-0.35698 -0.46357,-0.60741 -0.76728,-0.75129 -0.29839,-0.14918 -0.6394,-0.22378 -1.02303,-0.22379 -0.40496,1e-5 -0.76195,0.0746 -1.07099,0.22379 -0.30905,0.14921 -0.57013,0.4023 -0.78326,0.75929 -0.20781,0.35167 -0.36499,0.82589 -0.47156,1.42265 -0.10657,0.59145 -0.15985,1.33209 -0.15985,2.22191 0,0.86319 0.0533,1.5905 0.15985,2.18194 0.11189,0.59144 0.27174,1.06833 0.47955,1.43065 0.21313,0.357 0.47155,0.61542 0.77527,0.77527 0.30371,0.15452 0.65005,0.23178 1.03902,0.23178 0.3783,0 0.71931,-0.0773 1.02303,-0.23178 0.30371,-0.15985 0.55947,-0.41827 0.76728,-0.77527 0.21312,-0.36232 0.37564,-0.83921 0.48754,-1.43065 0.11721,-0.59144 0.17582,-1.31875 0.17583,-2.18194"
         style="font-size:16.36855507px"
         id="path3527"
         inkscape:connector-curvature="0" />
      <path
         d="m 323.49199,379.10061 c 0,1.08165 -0.10391,1.99279 -0.3117,2.73342 -0.20249,0.73531 -0.48222,1.33208 -0.83921,1.79031 -0.35167,0.45291 -0.76728,0.77793 -1.24682,0.97508 -0.47956,0.19715 -0.99107,0.29572 -1.53456,0.29572 -0.54881,0 -1.06033,-0.0986 -1.53455,-0.29572 -0.47422,-0.19715 -0.88716,-0.52217 -1.23883,-0.97508 -0.34634,-0.45291 -0.62075,-1.04701 -0.82322,-1.78232 -0.19715,-0.74063 -0.29572,-1.65443 -0.29572,-2.74141 0,-1.13493 0.0986,-2.07271 0.29572,-2.81335 0.20247,-0.74595 0.47954,-1.34006 0.83121,-1.78232 0.35167,-0.44224 0.76728,-0.75128 1.24683,-0.92712 0.47954,-0.18115 1.00172,-0.27173 1.56652,-0.27175 0.53815,2e-5 1.04168,0.0906 1.51057,0.27175 0.47422,0.17584 0.88716,0.48488 1.23884,0.92712 0.35166,0.44226 0.62873,1.03637 0.83121,1.78232 0.20247,0.74064 0.30371,1.67842 0.30371,2.81335 m -1.46262,0 c 0,-0.89515 -0.0533,-1.63845 -0.15984,-2.2299 -0.10658,-0.59676 -0.26376,-1.07098 -0.47156,-1.42266 -0.20781,-0.35698 -0.46357,-0.60741 -0.76728,-0.75129 -0.29839,-0.14918 -0.6394,-0.22378 -1.02303,-0.22379 -0.40496,1e-5 -0.76195,0.0746 -1.07099,0.22379 -0.30904,0.14921 -0.57013,0.4023 -0.78326,0.75929 -0.20781,0.35167 -0.36499,0.82589 -0.47156,1.42265 -0.10656,0.59145 -0.15985,1.33209 -0.15985,2.22191 0,0.86319 0.0533,1.5905 0.15985,2.18194 0.1119,0.59144 0.27175,1.06833 0.47955,1.43065 0.21313,0.357 0.47155,0.61542 0.77527,0.77527 0.30371,0.15452 0.65005,0.23178 1.03902,0.23178 0.3783,0 0.71932,-0.0773 1.02303,-0.23178 0.30371,-0.15985 0.55947,-0.41827 0.76728,-0.77527 0.21313,-0.36232 0.37564,-0.83921 0.48754,-1.43065 0.11722,-0.59144 0.17583,-1.31875 0.17583,-2.18194"
         style="font-size:16.36855507px"
         id="path3529"
         inkscape:connector-curvature="0" />
    </g>
    <g
       style="font-size:24.55283165px;font-style:normal;font-variant:normal;font-weight:normal;font-stretch:normal;text-align:start;line-height:125%;letter-spacing:0px;word-spacing:0px;writing-mode:lr-tb;text-anchor:start;fill:#000000;fill-opacity:1;stroke:none;font-family:Liberation Sans;-inkscape-font-specification:Liberation Sans"
       id="text4103-1-31-8-0"
       transform="translate(1.5020622,-8.8889161)">
      <path
         d="m 324.68929,409.68398 c 0,1.08165 -0.10391,1.99279 -0.3117,2.73342 -0.20249,0.73531 -0.48222,1.33208 -0.83921,1.79031 -0.35167,0.45291 -0.76728,0.77794 -1.24682,0.97508 -0.47956,0.19715 -0.99107,0.29572 -1.53456,0.29572 -0.54881,0 -1.06033,-0.0986 -1.53455,-0.29572 -0.47422,-0.19714 -0.88716,-0.52217 -1.23883,-0.97508 -0.34634,-0.4529 -0.62075,-1.04701 -0.82322,-1.78232 -0.19715,-0.74063 -0.29572,-1.65443 -0.29572,-2.74141 0,-1.13492 0.0986,-2.0727 0.29572,-2.81334 0.20247,-0.74596 0.47954,-1.34006 0.83121,-1.78232 0.35167,-0.44224 0.76728,-0.75128 1.24683,-0.92713 0.47954,-0.18115 1.00172,-0.27173 1.56652,-0.27174 0.53815,10e-6 1.04168,0.0906 1.51057,0.27174 0.47422,0.17585 0.88716,0.48489 1.23884,0.92713 0.35166,0.44226 0.62873,1.03636 0.83121,1.78232 0.20247,0.74064 0.30371,1.67842 0.30371,2.81334 m -1.46262,0 c 0,-0.89515 -0.0533,-1.63845 -0.15984,-2.22989 -0.10658,-0.59677 -0.26376,-1.07099 -0.47156,-1.42266 -0.20781,-0.35699 -0.46357,-0.60742 -0.76728,-0.75129 -0.29839,-0.14919 -0.6394,-0.22378 -1.02303,-0.22379 -0.40496,10e-6 -0.76195,0.0746 -1.07099,0.22379 -0.30904,0.1492 -0.57013,0.40229 -0.78326,0.75928 -0.20781,0.35168 -0.36499,0.8259 -0.47156,1.42266 -0.10656,0.59145 -0.15985,1.33208 -0.15985,2.2219 0,0.86319 0.0533,1.5905 0.15985,2.18194 0.1119,0.59145 0.27175,1.06833 0.47955,1.43065 0.21313,0.357 0.47155,0.61542 0.77527,0.77527 0.30371,0.15452 0.65005,0.23178 1.03902,0.23178 0.3783,0 0.71932,-0.0773 1.02303,-0.23178 0.30371,-0.15985 0.55947,-0.41827 0.76728,-0.77527 0.21313,-0.36232 0.37564,-0.8392 0.48754,-1.43065 0.11722,-0.59144 0.17583,-1.31875 0.17583,-2.18194"
         style="font-size:16.36855507px"
         id="path3522"
         inkscape:connector-curvature="0" />
    </g>
  </g>
</svg>
